<?xml version="1.0" encoding="utf-8"?>
<!-- Generator: Adobe Illustrator 27.5.0, SVG Export Plug-In . SVG Version: 6.00 Build 0)  -->
<svg version="1.1" xmlns="http://www.w3.org/2000/svg" xmlns:xlink="http://www.w3.org/1999/xlink" x="0px" y="0px"
	 viewBox="0 0 750 500" style="enable-background:new 0 0 750 500;" xml:space="preserve">
<g id="BACKGROUND">
	<rect style="fill:#CCE6ED;" width="750" height="500"/>
</g>
<g id="OBJECTS">
	<g>
		<path style="opacity:0.2;fill:#5FDDFF;" d="M164.069,342.297c55.704-5.784,127.539-9.268,205.954-9.268
			c104.273,0,196.913,6.16,255.454,15.699c15.614-9.172,27.061-20.74,32.321-33.87c6.689-16.695,3.053-34.817-24.245-50.909
			c-77.075-45.437,6.702-51.297-23.458-106.253c-30.942-56.381-171.976-101.56-331.967-68.844
			C93.167,126.674,62.445,278.223,164.069,342.297z"/>
		<path style="opacity:0.2;fill:#84BDF1;" d="M244.554,339.322c38.365-3.984,87.84-6.383,141.846-6.383
			c71.815,0,135.619,4.243,175.938,10.812c10.754-6.317,18.637-14.284,22.261-23.327c4.607-11.498,2.102-23.979-16.698-35.062
			c-53.083-31.293,4.616-35.329-16.156-73.179c-21.311-38.831-118.444-69.947-228.634-47.415
			C195.721,190.817,174.562,295.192,244.554,339.322z"/>
		<g>
			<g>
				<g style="opacity:0.25;">
					<rect x="414.654" y="129.891" style="fill:#163A51;" width="167.884" height="101.485"/>
					<rect x="423.778" y="139.016" style="fill:#163A51;" width="149.634" height="83.236"/>
					<path style="opacity:0.51;fill:#163A51;" d="M418.297,229.975c0,0,26.267-45.465,41.984-39.52
						c7.792,2.947,16.358,19.908,27.003,8.295c10.645-11.613,28.618-53.088,41.475-38.157c12.857,14.931,6.751,45.719,17.27,33.09
						c10.518-12.629,29.785-32.27,34.391-13.048c4.607,19.221-2.139,45.407-2.139,45.407L418.297,229.975z"/>
					<circle style="opacity:0.51;fill:#163A51;" cx="476.062" cy="180.634" r="11.199"/>
					<path style="opacity:0.51;fill:#163A51;" d="M455.114,153.953c0,0-4.233-7.862,1.136-8.285c5.369-0.423,1.4,6.745,6.299,5.667
						c1.962-0.432-4.543-15.591,5.576-14.987c6.086,0.363,0.875,11.156,4.233,12.254c2.375,0.777,1.962-5.092,5.369-4.401
						c2.81,0.569,0.649,5.711,3.511,7.134c1.445,0.719,0.398-3.97,4.44-3.337c3.304,0.518,0.413,5.955,0.413,5.955H455.114z"/>
					<path style="opacity:0.51;fill:#163A51;" d="M539.852,166.201c0,0-3.044-5.653,0.817-5.957c3.861-0.304,1.007,4.85,4.529,4.075
						c1.411-0.31-3.267-11.211,4.009-10.777c4.376,0.261,0.629,8.022,3.044,8.812c1.708,0.559,1.411-3.661,3.861-3.165
						c2.02,0.409,0.467,4.106,2.524,5.13c1.039,0.517,0.286-2.855,3.193-2.4c2.376,0.372,0.297,4.282,0.297,4.282H539.852z"/>
					<path style="opacity:0.51;fill:#163A51;" d="M428.561,178.145c0,0-3.044-5.653,0.817-5.957c3.861-0.304,1.006,4.85,4.529,4.075
						c1.411-0.31-3.267-11.211,4.009-10.777c4.376,0.261,0.629,8.022,3.044,8.812c1.708,0.558,1.411-3.661,3.861-3.165
						c2.021,0.409,0.467,4.106,2.525,5.13c1.039,0.517,0.286-2.855,3.193-2.399c2.376,0.372,0.297,4.282,0.297,4.282H428.561z"/>
					<polygon style="opacity:0.47;fill:#163A51;" points="423.778,139.016 423.778,222.251 428.083,222.251 428.083,143.581 
						573.413,143.581 573.413,139.016 					"/>
				</g>
				<g>
					<g>
						<g>
							<rect x="411.336" y="124.914" style="fill:#FFFFFB;" width="167.884" height="101.484"/>
							<rect x="420.46" y="134.039" style="fill:#84BDF1;" width="149.634" height="83.236"/>
							<path style="opacity:0.51;fill:#FFFFFB;" d="M414.979,224.997c0,0,26.267-45.465,41.984-39.52
								c7.792,2.947,16.358,19.908,27.003,8.295c10.645-11.613,28.618-53.088,41.475-38.157c12.857,14.931,6.751,45.719,17.27,33.09
								c10.518-12.629,29.785-32.27,34.391-13.048c4.607,19.221-2.14,45.407-2.14,45.407L414.979,224.997z"/>
							
								<ellipse transform="matrix(0.9422 -0.3352 0.3352 0.9422 -31.5304 168.6186)" style="opacity:0.51;fill:#FFFFFB;" cx="472.744" cy="175.657" rx="11.199" ry="11.199"/>
							<path style="opacity:0.51;fill:#FFFFFB;" d="M451.796,148.976c0,0-4.233-7.862,1.136-8.285
								c5.369-0.423,1.4,6.744,6.299,5.667c1.962-0.431-4.543-15.591,5.576-14.987c6.086,0.363,0.875,11.156,4.234,12.255
								c2.375,0.777,1.962-5.092,5.369-4.401c2.81,0.569,0.649,5.711,3.511,7.134c1.446,0.719,0.398-3.97,4.44-3.337
								c3.304,0.518,0.413,5.955,0.413,5.955H451.796z"/>
							<path style="opacity:0.51;fill:#FFFFFB;" d="M536.534,161.224c0,0-3.044-5.653,0.817-5.957s1.007,4.85,4.529,4.075
								c1.411-0.31-3.267-11.211,4.009-10.777c4.376,0.261,0.629,8.022,3.044,8.812c1.708,0.559,1.411-3.661,3.861-3.165
								c2.02,0.409,0.467,4.106,2.524,5.13c1.039,0.517,0.286-2.855,3.193-2.4c2.376,0.372,0.297,4.282,0.297,4.282H536.534z"/>
							<path style="opacity:0.51;fill:#FFFFFB;" d="M425.243,173.168c0,0-3.044-5.653,0.817-5.957
								c3.861-0.304,1.006,4.85,4.529,4.075c1.411-0.31-3.267-11.211,4.009-10.777c4.376,0.261,0.629,8.022,3.044,8.812
								c1.708,0.559,1.411-3.661,3.861-3.165c2.02,0.409,0.467,4.106,2.524,5.13c1.039,0.517,0.286-2.855,3.193-2.4
								c2.376,0.372,0.297,4.282,0.297,4.282H425.243z"/>
						</g>
						<polygon style="opacity:0.47;fill:#84BDF1;" points="420.46,134.039 420.46,217.275 424.765,217.275 424.765,138.604 
							570.095,138.604 570.095,134.039 						"/>
					</g>
				</g>
			</g>
			<g>
				<path style="fill:#9EC700;" d="M356.987,275.183l5.763-16.274l30.68,54.82l33.94,3.871l4.424,19.908c0,0-40.182,5.445-48.776,0
					c-8.594-5.445-37.437-31.934-37.437-31.934L356.987,275.183z"/>
				<path style="opacity:0.27;fill:#9EC700;" d="M356.987,275.183l5.763-16.274l30.68,54.82l33.94,3.871l4.424,19.908
					c0,0-40.182,5.445-48.776,0c-8.594-5.445-37.437-31.934-37.437-31.934L356.987,275.183z"/>
			</g>
			<path style="fill:#FF8B65;" d="M546.292,196.217l15.346-8.295c0,0-7.051,17.972-4.562,25.714
				c2.488,7.742,5.53,12.166,9.954,13.548c4.424,1.383-8.848,11.06-8.848,11.06h-11.889l-15.484-11.613
				c0,0,3.871,1.659,2.765-13.548c-1.106-15.208,10.23-15.484,10.23-15.484"/>
			<path style="opacity:0.25;fill:#FF8B65;" d="M546.292,196.217l15.346-8.295c0,0-7.051,17.972-4.562,25.714
				c2.488,7.742,5.53,12.166,9.954,13.548c4.424,1.383-8.848,11.06-8.848,11.06h-11.889l-15.484-11.613
				c0,0,3.871,1.659,2.765-13.548c-1.106-15.208,10.23-15.484,10.23-15.484"/>
			<path style="fill:#FF8B65;" d="M517.863,197.507c-0.021,0.376-0.031,0.752-0.025,1.129c0.103,6.642,3.768,11.943,7.852,16.79
				c10.528,12.497,29.096-6.352,29.087-20.948c-0.009-14.127-8.36-24.462-19.931-25.165c-7.177-0.435-15.448,1.593-17.617,13.652
				c-0.465,2.582,0.542,5.085,0.679,7.645C518.031,192.935,517.995,195.199,517.863,197.507z"/>
			<path style="opacity:0.25;fill:#FF8B65;" d="M534.845,169.315c-2.401-0.146-4.924-0.012-7.301,0.677
				c8.076,2.328,14.582,10.028,16.748,20.928c2.025,10.192-4.266,24.181-12.581,28.339c10.354,2.282,23.073-12.697,23.066-24.779
				C554.767,180.352,546.417,170.017,534.845,169.315z"/>
			<path style="fill:#0F3552;" d="M547.329,192.07c0,0,2.871-10.78,0.382-8.018c-5.235,5.81-0.59-7.189-6.12-6.913
				c-5.53,0.277-15.012,7.046-27.65,5.53c-6.912-0.829-11.613-7.736-11.336-13.408c0,0,3.318,3.454,8.848,3.454
				c0,0-10.886-1.551-7.568-12.887c0,0,7.568,4.039,18.075,1.274c10.507-2.765,25.831-4.406,34.286,2.212
				c18.456,14.447,0.424,34.77,1.707,50.359c0,0-6.43-2.939-6.43-17.248C551.523,189.563,547.329,192.07,547.329,192.07z"/>
			<path style="fill:#FECD29;" d="M560.889,221.932c0,0-13.684,15.484-28.201,1.659c0,0-19.161,2.488-26.959,9.954
				c-6.897,6.603,1.576,28.618-0.498,49.77c-2.074,21.152-6.584,36.913-3.085,49.77c3.5,12.857,70.689,18.249,70.689,18.249
				s24.011-90.723,12.028-117.789C582.167,227.455,569.679,222.346,560.889,221.932z"/>
			<path style="fill:#FECD29;" d="M567.932,317.877l-6.95-3.836c0,0-38.222,12.944-43.876,13.09
				c-5.653,0.147,11.273,11.76,11.273,11.76L567.932,317.877z"/>
			<path style="fill:#FECD29;" d="M523.066,269.213l-17.171-35.668c0,0-11.862,13.272-18.774,32.35
				c-4.974,13.729-19.631,37.604-19.631,37.604l20.737,15.208c0,0,21.29-24.055,24.608-32.627
				C516.153,277.508,523.066,269.213,523.066,269.213z"/>
			<polygon style="fill:#FECD29;" points="510.623,262.992 508.966,292.716 485.324,314.87 			"/>
			<path style="fill:#FF8C62;" d="M371.901,229.397l-3.502,6.359l-2.938,3.404c0,0-1.424,9.9,2.464,15.122
				c3.888,5.222-13.193,4.562-13.193,4.562l-11.667-24.747c0,0,7.679-5.617,7.158-19.675
				C349.701,200.365,371.901,229.397,371.901,229.397z"/>
			<path style="fill:#0F3552;" d="M378.733,185.987c0,0-3.228-5.668-10.808-6.083c-7.579-0.415-23.478,1.936-31.773,21.567
				c-8.295,19.632-3.042,26.82-14.101,38.986c-11.06,12.166-8.32,31.251-4.814,38.426c3.506,7.174,20.021-20.012,20.021-20.012
				l39.099-73.277"/>
			<path style="fill:#9EC700;" d="M367.397,248.752c0,0-16.59-1.659-24.332-14.654c0,0-15.484,9.954-21.567,24.747
				c-6.083,14.793-9.954,82.065-9.954,82.065h72.443c0,0-1.659-37.79-4.977-56.126C375.692,266.448,367.397,248.752,367.397,248.752
				z"/>
			<path style="fill:#FFFFFB;" d="M345.138,231.886c0,0,10.092,17.765,22.258,16.867c0,0,4.078,14.24-4.217,14.862
				c-8.295,0.622-11.406-7.673-11.406-9.954c0,0-9.747-0.415-7.051-10.576C344.724,243.084,336.221,236.655,345.138,231.886z"/>
			<path style="opacity:0.46;fill:#9EC700;" d="M346.936,304.571l-25.179-17.662c0,0,13.013,46.724,43.325,45.065
				c0,0,12.627-1.997,18.116-7.079L382.36,312.9L346.936,304.571z"/>
			<g>
				<path style="fill:#FF8C62;" d="M374.073,186.413c-11.195-0.062-26.729,17.142-23.866,31.606
					c2.679,13.537,5.471,17.922,16.526,21.72c8.288,2.848,16.399-3.895,21.707-14.137c2.4,0.1,3.252-0.926,4.124-1.788
					c0.53-0.524-2.127-2.846-2.059-8.78c0.13-0.195,0.253-0.413,0.356-0.69C396.471,199.221,386.218,186.48,374.073,186.413z"/>
				<path style="opacity:0.27;fill:#FF8C62;" d="M374.073,186.413c3.231,0.018,12.441,0.989,15.272,2.232
					c-1.477-0.119-6.234,0.555-7.731,0.713c-11.134,1.17-20.636,22.76-20.758,34.111c-0.098,9.135,1.391,13.424,5.877,16.27
					c-13.695-3.431-15.616-12.693-16.608-27.078C349.11,197.952,362.878,186.351,374.073,186.413z"/>
			</g>
			<path style="fill:#FF8B65;" d="M226.106,220.549c0,0-1.936,18.802,3.871,19.908s-4.181,7.309-4.181,7.309L207.58,252.9
				l-12.995-13.825c0,0,5.53-0.553,5.53-18.525C200.115,202.577,226.106,220.549,226.106,220.549z"/>
			<path style="fill:#0F3552;" d="M365.714,186.759c0,0,9.701,5.035,7.489,16.094l20.583,1.659c0,0,0.646-15.249-10.245-19.238
				C372.65,181.286,365.714,186.759,365.714,186.759z"/>
			<path style="fill:#0F3552;" d="M371.901,187.231l5.855,5.901c0,0-9.831,1.034-12.295,10.693
				c-1.643,6.442-2.488-1.541-6.498-0.711c-4.868,1.007-5.392,6.638-2.488,12.091c2.903,5.453,2.542,26.152-12.028,38.762
				c-14.102,12.205-25.3,5.234-25.3,5.234l5.945-11.434l9.954-18.1l5.254-15.291l8.433-26.196l11.336-0.948H371.901z"/>
			<path style="fill:#0F3552;" d="M220.772,193.509c0,0,9.943,2.033,8.999,9.183c0,0-1.099,10.006,2.256,8.354
				c1.888-0.93,0.293-1.264,2.875-2.839c5.865-3.575,4.705-16.023,2.159-20.365c-3.605-6.149-8.979-10.967-16.356-11.989
				C203.492,173.47,220.772,193.509,220.772,193.509z"/>
			<path style="opacity:0.46;fill:#9EC700;" d="M349.793,271.978l16.346,27.367C366.139,299.345,357.766,271.01,349.793,271.978z"/>
			<g>
				<path style="fill:#FF8B65;" d="M231.79,211.122c-0.481-1.562-1.019-3.111-1.203-4.731c-0.255-2.248,1.79-4.626,1.044-6.805
					c-0.775-2.265-2-4.406-3.291-6.415c-2.632-4.097-6.516-8.163-11.437-9.277c-0.547-0.124-1.104-0.208-1.664-0.247l-0.134-0.01
					c-1.114-0.077-2.234-0.079-3.348-0.006c0,0-0.924,0.061-0.925,0.061c-5.479,0.361-9.863,4.232-12.881,8.542
					c-1.544,2.205-2.815,4.604-3.83,7.095c-0.555,1.36-1.002,2.717-1.038,4.196c-0.044,1.783,1.976,3.568,1.597,5.339
					c-0.388,1.811-1.233,3.504-1.49,5.346c-0.268,1.924,0.032,3.911,0.382,5.805c1.014,5.485,2.113,10.532,5.714,14.754
					c0.971,1.139,2.008,2.221,3.096,3.248c2.547,2.405,6.227,3.798,10.101,3.798h0.893c3.875,0,7.554-1.393,10.101-3.798
					c6.165-5.82,10.464-15.151,9.029-24.038C232.349,213.011,232.08,212.064,231.79,211.122z"/>
				<path style="opacity:0.41;fill:#FCB29A;" d="M234.679,213.981c-0.157-0.97-1.009-1.917-1.299-2.859
					c-0.481-1.562-1.019-3.111-1.203-4.731c-0.255-2.248,0.201-4.626-0.546-6.805c-0.775-2.265-2-4.406-3.291-6.415
					c-2.632-4.097-6.516-8.163-11.437-9.277c-0.547-0.124-1.104-0.208-1.664-0.247l-0.134-0.01c-0.32-0.022-0.641,0.008-0.961-0.002
					c1.641,3.656,6.471,14.973,2.535,26.401c-1.046,3.036-0.146,5.253,0.313,6.924c0.333,1.21,1.512,2.786,2.185,3.615
					c0.324,0.4-1.015,3.151-2.641,3.499c-1.824,0.391,0.215,6.978,0.378,8.136c0.661,4.696-6.318,9.391-7.831,9.501
					c5.395,0.843,11.863-0.984,14.393-3.694C230.471,230.527,236.114,222.868,234.679,213.981z"/>
			</g>
			<path style="fill:#0F3552;" d="M206.206,182.254c0,0,0.265,9.334-3.708,12.083c-3.973,2.749-7.103,2.746-6.511,9.769
				c0.672,7.979-4.886,5.707-6.201,3.176C184.754,197.598,191.375,176.427,206.206,182.254z"/>
			<g>
				<path style="fill:#FF8B65;" d="M231.453,207.924c0,0,1.643-5.905,5.238-4.365s4.878,14.633-4.596,12.63"/>
				<path style="opacity:0.41;fill:#FCB29A;" d="M231.628,207.599c0,0,2.132-5.747,5.585-3.91c3.453,1.836,4.032,15.228-5.24,12.439
					"/>
			</g>
			<g>
				<path style="fill:#FF8B65;" d="M196.261,207.924c0,0-2.438-5.905-6.032-4.365s-4.878,14.633,4.596,12.63"/>
			</g>
			<path style="fill:#0F3552;" d="M223.818,190.066"/>
			<path style="fill:#0F3552;" d="M225.142,191.391l0.132,4.37c0,0,5.164,1.059,5.164,11.256c0,5.628,3.104,5.654,2.344,2.163
				c-0.607-2.787,1.53-5.208,4.43-5.49c2.644-0.257-0.153-15.344-0.153-15.344L225.142,191.391z"/>
			<path style="fill:#84BDF1;" d="M695.553,366.652c0-16.279-143.516-29.476-320.553-29.476
				c-177.037,0-320.553,13.197-320.553,29.476c0,6.586,23.493,12.667,63.188,17.574c-5.681,2.177-8.708,4.46-8.708,6.813
				c0,14.985,122.576,27.133,273.781,27.133S656.49,406.025,656.49,391.04c0-2.888-4.568-5.669-12.999-8.28
				C676.411,378.13,695.553,372.597,695.553,366.652z"/>
			<path style="opacity:0.47;fill:#84BDF1;" d="M619.256,369.636c0,1.451-7.826,2.627-17.48,2.627s-17.48-1.176-17.48-2.627
				c0-1.451,7.826-2.627,17.48-2.627S619.256,368.185,619.256,369.636z"/>
			<polygon style="opacity:0.47;fill:#84BDF1;" points="314.153,380.526 363.424,382.493 420.164,354.143 389.345,352.949 			"/>
			<path style="fill:#0F3552;" d="M202.083,190.596l-0.132,4.37c0,0-5.164,1.059-5.164,11.256c0,5.628-3.104,5.654-2.344,2.163
				c0.607-2.787-1.53-5.208-4.43-5.49c-0.595-0.058-0.914-0.866-1.052-2.085c-0.764-6.759,5.635-12.127,12.225-10.443
				L202.083,190.596z"/>
			<path style="fill:#0F3552;" d="M225.274,195.76c0,0-22.247,5.813-29.662-6.356c-5.86-9.616-5.827-14.566-5.827-14.566
				s1.589,3.973,4.502,3.973v-5.562c0,0,2.384,4.502,4.767,4.502l-1.589-4.502c0,0,1.589,2.648,5.826,2.648
				c4.238,0,14.831-4.502,21.982,0c7.151,4.502,9.337,16.361,9.038,20.099C234.014,199.733,225.274,195.76,225.274,195.76z"/>
			<path style="fill:#CCCBCA;" d="M578.366,348.375H478.273v-7.466H570.9C575.023,340.909,578.366,344.252,578.366,348.375
				L578.366,348.375z"/>
			<path style="fill:#FA3900;" d="M195.84,241.84c0,0,16.458,12.442,31.968,0l2.169-1.383c0,0,24.539,12.373,30.76,17.143
				c6.221,4.77-7.535,90.775-7.535,90.775l-79.632-1.189c0,0-10.507-84.056-8.295-90.692
				C167.488,249.858,195.84,241.84,195.84,241.84z"/>
			<path style="fill:#CCCBCA;" d="M225.796,247.766c0,0-0.382,13.601-13.792,13.416c-8.476-0.116-12.719-13.416-12.719-13.416
				l3.437-2.308C202.723,245.458,220.786,248.716,225.796,247.766z"/>
			<path style="fill:#FFFFFB;" d="M213.248,247.024c0,0,16.728-6.567,12.719-12.65c0,0,6.906,4.45,10.431,11.086l-14.026,20.02
				L213.248,247.024z"/>
			<path style="fill:#FFFFFB;" d="M213.235,247.024c0,0-18.387-6.567-14.378-12.65c0,0-6.906,4.45-10.431,11.086l14.026,20.02
				L213.235,247.024z"/>
			<path style="fill:#FA3900;" d="M244.355,276.013l16.382-18.412c0,0,13.34,23.083,23.157,49.77
				c6.815,18.526,9.497,34.826,0.829,38.516c-16.59,7.063-47.03,2.257-47.03,2.257L244.355,276.013z"/>
			<path style="fill:#FA3900;" d="M181.19,276.013l-14.724-21.73c0,0-16.674,20.087-23.31,47.736
				c-6.636,27.65-5.53,34.937,3.318,42.126c7.312,5.941,41.377,6.487,41.377,6.487L181.19,276.013z"/>
			<polygon style="fill:#FA3900;" points="250.113,280.089 255.58,327.383 269.792,326.172 			"/>
			<polygon style="fill:#FA3900;" points="179.872,281.679 178.348,330.872 162.133,330.322 			"/>
			<path style="fill:#FF8B65;" d="M550.199,328.108l-10.066-4.294c0,0-23.027,0-31.584,9.686c-6.225,7.047,4.147,9.954,4.147,9.954
				l37.502-3.733V328.108z"/>
			<path style="fill:#FECD29;" d="M565.036,255.941l19.827-22.396c0,0,9.954,11.337,15.346,31.106
				c3.659,13.415,11.275,59.286,1.244,70.922c-10.369,12.028-62.212,11.198-62.212,11.198s4.493-9.456-5.426-19.825
				c0,0,15.795-7.963,22.846-10.452c7.051-2.488,13.273-5.843,21.567-5.392c0,0-8.148-22.001-10.295-33.812
				C565.785,265.48,565.036,255.941,565.036,255.941z"/>
			<g>
				<path style="fill:#CCCBCA;" d="M532.898,348.292H433.76c-1.629,0-3.102-0.968-3.747-2.463l-22.273-51.56
					c-1.164-2.695,0.812-5.701,3.747-5.701h99.138c1.629,0,3.102,0.968,3.747,2.463l22.273,51.56
					C537.81,345.286,535.834,348.292,532.898,348.292z"/>
				<path style="fill:#FFFFFB;" d="M531.239,348.292h-99.138c-1.629,0-3.102-0.968-3.747-2.463l-22.273-51.56
					c-1.164-2.695,0.812-5.701,3.747-5.701h99.138c1.629,0,3.102,0.968,3.747,2.463l22.273,51.56
					C536.151,345.286,534.175,348.292,531.239,348.292z"/>
				<ellipse style="fill:#CCCBCA;" cx="467.423" cy="319.417" rx="6.57" ry="4.198"/>
				<path style="opacity:0.35;fill:#CCCBCA;" d="M422.136,288.931l0.358-0.363h-12.665c-2.936,0-4.911,3.006-3.747,5.701
					l22.273,51.56c0.646,1.495,2.119,2.463,3.747,2.463h99.138c1.754,0,3.159-1.076,3.763-2.515
					C471.031,354.584,422.136,288.931,422.136,288.931z"/>
			</g>
			<g>
				<g>
					<path style="fill:#FF8C62;" d="M416.019,285.321c-0.088-2.934,2.762-2.751,3.287-4.328c0.87-2.61,0.418-2.11,0.418-2.11
						s-3.192-0.525-8.957,3.776c-1.255,0.936-2.575,2.882-2.818,4.268c-0.354,2.019-4.952,2.613-8.193,3.551
						c-1.863,0.539-5.84,1.276-7.543,1.355c-0.624,0.029,5.703,15.434,5.703,15.434s8.65-8.882,16.527-8.882
						c1.669-0.248,3.233-0.851,3.233-0.851s3.017-0.924,3.448-4.404C421.594,289.327,416.107,288.254,416.019,285.321z"/>
					<g>
						<path style="fill:#FA3900;" d="M424.542,274.982c0,0.569,4.119,1.03,9.2,1.03s9.733-0.461,9.733-1.03s-4.652-1.03-9.733-1.03
							S424.542,274.413,424.542,274.982z"/>
						<path style="opacity:0.35;fill:#FA3900;" d="M424.542,274.982c0,0.569,4.119,1.03,9.2,1.03s9.733-0.461,9.733-1.03
							s-4.652-1.03-9.733-1.03S424.542,274.413,424.542,274.982z"/>
						<g>
							<path style="fill:#FA3900;" d="M421.212,295.207c-3.218-0.598-4.366-3.429-4.366-5.887v-9.147
								c0-2.57,2.091-4.662,4.662-4.662l5.919,1.012v20.175L421.212,295.207z M421.401,278.383
								c-0.939,0.055-1.686,0.837-1.686,1.789v9.147c0,1.01,0.266,2.753,2.045,3.07l2.797,0.669v-14.125L421.401,278.383z"/>
						</g>
						<path style="fill:#FA3900;" d="M424.502,274.946c2.062,0.455,5.295,0.75,8.94,0.75c4.13,0,7.732-0.378,9.698-0.94
							c0.428,0.41,0.709,0.978,0.709,1.638v17.22c0,2.264-1.348,4.326-3.438,5.195c-4.585,1.907-10.075,1.941-14.118-0.698
							c-1.571-1.026-2.493-2.802-2.493-4.678V276.57C423.8,275.914,424.079,275.353,424.502,274.946z"/>
						<path style="opacity:0.78;fill:#FA3900;" d="M434.856,293.657c2.688-0.605,4.736-2.796,5.209-5.51l2.302-13.199
							c0.278-0.061,0.538-0.125,0.772-0.192c0.428,0.41,0.709,0.978,0.709,1.638v17.22c0,2.264-1.348,4.326-3.438,5.195
							c-4.585,1.907-10.075,1.941-14.118-0.698c-1.571-1.026-2.493-2.802-2.493-4.678v-0.233
							C427.278,294.362,431.199,294.48,434.856,293.657z"/>
					</g>
					<path style="fill:#FF8C62;" d="M421.695,290.483c1.095-1.532,0.516-2.887-0.071-3.686c1.081-1.544,0.702-2.93,0.135-3.867
						c1.234-2.262-1.023-4.047-1.023-4.047s-1.035,2.778-3.453,3.763c-5.613,2.287,1.136,10.685,0.355,10.973
						c-3.648,1.345-1.188,4.711,2.478,2.277C423.488,293.655,422.507,291.508,421.695,290.483z"/>
					<polygon style="fill:#FFFFFB;" points="397.812,289.941 401.947,288.07 405.796,286.757 410.669,303.036 404.24,306.23 					
						"/>
				</g>
				<path style="fill:#9EC700;" d="M344.472,259.71l21.667,39.635l33.85-11.841l6.014,21.422c0,0-24.215,15.104-42.873,17.511
					c-18.658,2.408-41.616-32.926-42.218-41.653C320.31,276.056,323.406,254.895,344.472,259.71z"/>
			</g>
			<path style="fill:#FF8B65;" d="M546.377,186.195c0,0,3.711-7.392,7.938-4.028c4.227,3.364,3.189,14.93-6.63,13.099"/>
			<path style="opacity:0.25;fill:#FF8B65;" d="M546.377,186.195c0,0,3.711-7.392,7.938-4.028c4.227,3.364,3.189,14.93-6.63,13.099"
				/>
			<path style="fill:#FECD29;" d="M567.932,260.503l8.433,45.403C576.365,305.906,560.955,270.043,567.932,260.503z"/>
			<g>
				<path style="fill:#CCCBCA;" d="M358.313,382.175l-102.067-3.646c-4.665-0.167-6.834-8.95-2.64-11.001l40.48-16.903
					c0.626-0.306,1.315-0.462,2.012-0.456l105.156-0.714c4.543,0.042,4.494,7.694,0.583,10.006l-34.569,20.435
					C364.562,381.496,361.454,382.287,358.313,382.175z"/>
				<path style="fill:#FFFFFB;" d="M358.313,378.857l-102.067-3.646c-4.665-0.167-6.004-6.462-1.81-8.513l39.65-19.391
					c0.626-0.306,1.315-0.462,2.012-0.456l103.497,0.945c4.543,0.041,6.153,6.035,2.242,8.347l-34.569,20.436
					C364.562,378.178,361.454,378.969,358.313,378.857z"/>
				<path style="opacity:0.35;fill:#CCCBCA;" d="M288.383,350.096l-33.947,16.602c-4.194,2.051-2.855,8.346,1.81,8.513
					l102.067,3.646c3.141,0.112,6.249-0.678,8.955-2.278l1.463-0.865C335.243,372.052,301.859,356.841,288.383,350.096z"/>
			</g>
			<ellipse style="fill:#CCCBCA;" cx="328.203" cy="360.207" rx="9.885" ry="2.652"/>
			<g>
				<path style="fill:#FFFFFB;" d="M258.021,352.729l-87.618,0.22c-3.239,0.008-5.966-2.419-6.333-5.637l-5.217-45.75
					c-0.43-3.772,2.52-7.078,6.317-7.078h98.048c3.798,0,6.748,3.308,6.316,7.081l-5.214,45.53
					C263.954,350.299,261.246,352.721,258.021,352.729z"/>
				<ellipse style="fill:#CCCBCA;" cx="213.524" cy="326.606" rx="8.463" ry="5.411"/>
				<path style="opacity:0.2;fill:#CCCBCA;" d="M165.17,294.484c-3.796,0-6.746,3.306-6.317,7.078l5.217,45.75
					c0.367,3.218,3.094,5.645,6.333,5.637l87.618-0.22c2.685-0.007,5.006-1.689,5.922-4.099
					C205.968,346.304,165.17,294.484,165.17,294.484z"/>
			</g>
			<path style="fill:#33C7CA;" d="M122.142,204.512"/>
			<g>
				<g>
					<g>
						<g>
							<path style="fill:#28B28A;" d="M608.083,293.273c0,0,15.348-25.41,27.433-16.586c9.611,7.017-1.412,23.604-11.455,28.062
								c-5.875,2.607-15.978,0.706-15.978,0.706V293.273z"/>
							<path style="opacity:0.19;fill:#28B28A;" d="M614.072,288.99c1.292-3.358,2.143-5.595,5.768-7.023
								c-6.945,1.1-11.758,11.306-11.758,11.306v12.181c0,0,10.122,2.652,15.978,0c1.758-0.796,3.512-2.524,4.841-4.722
								c-6.821,4.015-10.32,2.671-13.503-0.202C612.793,298.18,612.812,292.265,614.072,288.99z"/>
							<path style="fill:#28B28A;" d="M586.174,339.742c0,0,3.1-5.694,0-10.86c-3.1-5.166-11.105-24.54-9.299-36.164
								c1.805-11.624,4.892-31.257,21.699-32.548c14.987-1.152,22.732,11.883,15.757,23.249c-4.837,7.883-2.596,33.859-3.702,39.949
								c-2.067,11.37-13.346,17.656-13.346,17.656L586.174,339.742z"/>
						</g>
						<path style="opacity:0.19;fill:#28B28A;" d="M590.048,321.907c-3.1-5.166-10.847-19.467-9.041-31.092
							c1.45-9.336,3.733-23.828,13.279-29.845c-13.073,4.028-15.772,21.189-17.412,31.747c-1.806,11.624,6.2,30.998,9.299,36.164
							c3.1,5.166,0,10.86,0,10.86l11.108,1.281c0,0,9.667-5.393,12.739-15.219C604.821,330.917,592.63,326.21,590.048,321.907z"/>
					</g>
					<g>
						<g>
							<path style="fill:#FFFFFF;" d="M630.751,292.569c1.41-0.076,2.821-0.057,4.231-0.088c1.41,0.031,2.821,0.012,4.231,0.088
								c-1.411,0.076-2.821,0.057-4.231,0.088C633.572,292.625,632.161,292.645,630.751,292.569z"/>
						</g>
						<g>
							<path style="fill:#FFFFFF;" d="M630.955,292.281c0.619,0.347,1.183,0.771,1.776,1.154c0.557,0.434,1.143,0.827,1.674,1.297
								c-0.619-0.346-1.183-0.771-1.776-1.154C632.072,293.144,631.486,292.751,630.955,292.281z"/>
						</g>
						<g>
							<path style="fill:#FFFFFF;" d="M631.063,292.531c0.49-0.513,1.041-0.953,1.56-1.432c0.559-0.431,1.086-0.901,1.674-1.297
								c-0.49,0.513-1.041,0.953-1.56,1.432C632.178,291.664,631.651,292.134,631.063,292.531z"/>
						</g>
					</g>
					<g>
						<g>
							<path style="fill:#FFFFFF;" d="M638.094,287.882c0.467-0.076,0.935-0.056,1.402-0.088c0.467,0.031,0.935,0.012,1.402,0.088
								c-0.467,0.076-0.935,0.057-1.402,0.088C639.028,287.939,638.561,287.958,638.094,287.882z"/>
						</g>
						<g>
							<path style="fill:#FFFFFF;" d="M638.161,287.787c0.234,0.074,0.414,0.225,0.623,0.334c0.172,0.161,0.374,0.28,0.521,0.478
								c-0.235-0.073-0.414-0.224-0.622-0.334C638.51,288.104,638.308,287.984,638.161,287.787z"/>
						</g>
						<g>
							<path style="fill:#FFFFFF;" d="M638.197,287.87c0.13-0.209,0.321-0.345,0.479-0.519c0.199-0.127,0.365-0.292,0.593-0.385
								c-0.13,0.209-0.321,0.345-0.479,0.519C638.591,287.612,638.424,287.777,638.197,287.87z"/>
						</g>
					</g>
					<g>
						<g>
							<path style="fill:#FFFFFF;" d="M632.744,286.959c0.766-1.187,1.609-2.318,2.411-3.478c0.853-1.124,1.665-2.277,2.554-3.375
								c-0.766,1.187-1.609,2.318-2.411,3.478C634.445,284.707,633.633,285.861,632.744,286.959z"/>
						</g>
						<g>
							<path style="fill:#FFFFFF;" d="M632.631,286.624c0.644-0.298,1.318-0.505,1.976-0.761c0.678-0.197,1.34-0.441,2.032-0.594
								c-0.644,0.298-1.318,0.506-1.976,0.761C633.985,286.226,633.323,286.47,632.631,286.624z"/>
						</g>
						<g>
							<path style="fill:#FFFFFF;" d="M632.897,286.684c-0.128-0.698-0.161-1.402-0.244-2.103c-0.021-0.706-0.092-1.407-0.069-2.116
								c0.128,0.698,0.161,1.402,0.244,2.103C632.849,285.273,632.92,285.975,632.897,286.684z"/>
						</g>
					</g>
					<g>
						<g>
							<path style="fill:#FFFFFF;" d="M622.797,280.106c0.426-0.717,0.929-1.379,1.391-2.07c0.513-0.654,0.984-1.338,1.533-1.966
								c-0.426,0.717-0.929,1.379-1.391,2.07C623.818,278.793,623.346,279.477,622.797,280.106z"/>
						</g>
						<g>
							<path style="fill:#FFFFFF;" d="M622.731,279.909c0.369-0.205,0.769-0.32,1.152-0.483c0.404-0.104,0.791-0.255,1.209-0.316
								c-0.369,0.205-0.769,0.32-1.152,0.483C623.536,279.696,623.148,279.847,622.731,279.909z"/>
						</g>
						<g>
							<path style="fill:#FFFFFF;" d="M622.887,279.944c-0.106-0.409-0.118-0.824-0.18-1.236c0-0.417-0.049-0.829-0.004-1.249
								c0.107,0.409,0.118,0.824,0.18,1.236C622.882,279.111,622.932,279.524,622.887,279.944z"/>
						</g>
					</g>
					<g>
						<g>
							<path style="fill:#FFFFFF;" d="M608.606,276.227c0.426-0.717,0.929-1.379,1.391-2.07c0.513-0.655,0.984-1.339,1.533-1.967
								c-0.426,0.717-0.929,1.379-1.391,2.07C609.626,274.914,609.154,275.598,608.606,276.227z"/>
						</g>
						<g>
							<path style="fill:#FFFFFF;" d="M608.539,276.03c0.369-0.205,0.769-0.32,1.152-0.483c0.403-0.103,0.791-0.255,1.208-0.316
								c-0.369,0.205-0.769,0.32-1.152,0.483C609.344,275.817,608.957,275.968,608.539,276.03z"/>
						</g>
						<g>
							<path style="fill:#FFFFFF;" d="M608.696,276.065c-0.106-0.409-0.118-0.824-0.18-1.236c0-0.417-0.049-0.829-0.004-1.249
								c0.107,0.409,0.118,0.824,0.18,1.236C608.69,275.232,608.74,275.645,608.696,276.065z"/>
						</g>
					</g>
					<g>
						<g>
							<g>
								<path style="fill:#FFFFFF;" d="M623.677,298.768c0.426-0.717,0.929-1.378,1.391-2.07c0.513-0.654,0.984-1.339,1.533-1.966
									c-0.426,0.717-0.929,1.379-1.391,2.07C624.697,297.456,624.225,298.139,623.677,298.768z"/>
							</g>
							<g>
								<path style="fill:#FFFFFF;" d="M623.61,298.571c0.369-0.205,0.769-0.32,1.152-0.483c0.404-0.104,0.791-0.255,1.209-0.316
									c-0.369,0.205-0.769,0.32-1.152,0.483C624.415,298.358,624.028,298.51,623.61,298.571z"/>
							</g>
							<g>
								<path style="fill:#FFFFFF;" d="M623.766,298.606c-0.106-0.409-0.118-0.824-0.18-1.236c0-0.417-0.049-0.829-0.004-1.249
									c0.107,0.409,0.118,0.824,0.18,1.236C623.761,297.773,623.811,298.186,623.766,298.606z"/>
							</g>
						</g>
						<g>
							<g>
								<path style="fill:#FFFFFF;" d="M623.738,298.391c0.832,0.058,1.649,0.21,2.474,0.311c0.815,0.163,1.638,0.277,2.446,0.485
									c-0.832-0.058-1.649-0.209-2.474-0.311C625.369,298.712,624.546,298.599,623.738,298.391z"/>
							</g>
							<g>
								<path style="fill:#FFFFFF;" d="M623.884,298.243c0.349,0.238,0.631,0.543,0.949,0.812c0.274,0.314,0.583,0.592,0.826,0.937
									c-0.349-0.237-0.632-0.543-0.949-0.812C624.436,298.866,624.127,298.589,623.884,298.243z"/>
							</g>
							<g>
								<path style="fill:#FFFFFF;" d="M623.923,298.399c0.317-0.279,0.683-0.476,1.023-0.717c0.372-0.187,0.718-0.417,1.114-0.566
									c-0.317,0.279-0.683,0.476-1.023,0.717C624.665,298.02,624.318,298.25,623.923,298.399z"/>
							</g>
						</g>
					</g>
					<g>
						<g>
							<g>
								<path style="fill:#FFFFFF;" d="M618.727,305.619c0.829-0.096,1.659-0.097,2.489-0.149c0.831,0.011,1.661-0.029,2.494,0.026
									c-0.829,0.097-1.66,0.098-2.489,0.15C620.39,305.634,619.56,305.674,618.727,305.619z"/>
							</g>
							<g>
								<path style="fill:#FFFFFF;" d="M618.844,305.447c0.387,0.169,0.72,0.417,1.083,0.623c0.327,0.258,0.682,0.474,0.984,0.769
									c-0.387-0.169-0.721-0.417-1.082-0.623C619.501,305.958,619.146,305.742,618.844,305.447z"/>
							</g>
							<g>
								<path style="fill:#FFFFFF;" d="M618.911,305.592c0.26-0.332,0.584-0.594,0.874-0.893c0.331-0.252,0.629-0.542,0.991-0.761
									c-0.26,0.332-0.584,0.594-0.874,0.893C619.569,305.083,619.272,305.373,618.911,305.592z"/>
							</g>
						</g>
						<g>
							<g>
								<path style="fill:#FFFFFF;" d="M619.064,305.44c0.459,0.697,0.834,1.438,1.253,2.156c0.365,0.747,0.773,1.47,1.098,2.239
									c-0.459-0.697-0.834-1.438-1.253-2.156C619.798,306.931,619.389,306.208,619.064,305.44z"/>
							</g>
							<g>
								<path style="fill:#FFFFFF;" d="M619.27,305.466c0.023,0.422-0.049,0.831-0.07,1.247c-0.083,0.408-0.117,0.823-0.244,1.225
									c-0.023-0.422,0.048-0.831,0.07-1.247C619.11,306.283,619.143,305.868,619.27,305.466z"/>
							</g>
							<g>
								<path style="fill:#FFFFFF;" d="M619.17,305.591c0.414,0.083,0.793,0.254,1.19,0.379c0.374,0.182,0.767,0.318,1.125,0.542
									c-0.414-0.083-0.793-0.254-1.19-0.379C619.922,305.951,619.529,305.815,619.17,305.591z"/>
							</g>
						</g>
					</g>
					<g>
						<g>
							<g>
								<path style="fill:#FFFFFF;" d="M609.719,309.619c0.829-0.096,1.659-0.098,2.489-0.15c0.831,0.011,1.661-0.029,2.494,0.027
									c-0.829,0.097-1.66,0.098-2.489,0.15C611.382,309.634,610.552,309.674,609.719,309.619z"/>
							</g>
							<g>
								<path style="fill:#FFFFFF;" d="M609.836,309.446c0.387,0.169,0.72,0.417,1.082,0.623c0.327,0.258,0.682,0.474,0.984,0.769
									c-0.387-0.169-0.721-0.417-1.083-0.623C610.493,309.957,610.138,309.741,609.836,309.446z"/>
							</g>
							<g>
								<path style="fill:#FFFFFF;" d="M609.903,309.592c0.26-0.332,0.584-0.594,0.874-0.893c0.331-0.252,0.629-0.542,0.991-0.761
									c-0.26,0.332-0.584,0.594-0.874,0.893C610.562,309.083,610.264,309.373,609.903,309.592z"/>
							</g>
						</g>
						<g>
							<g>
								<path style="fill:#FFFFFF;" d="M610.056,309.439c0.459,0.697,0.834,1.438,1.253,2.156c0.365,0.747,0.773,1.47,1.098,2.239
									c-0.459-0.697-0.834-1.438-1.253-2.156C610.79,310.931,610.381,310.207,610.056,309.439z"/>
							</g>
							<g>
								<path style="fill:#FFFFFF;" d="M610.262,309.466c0.023,0.422-0.049,0.831-0.07,1.247c-0.083,0.408-0.117,0.822-0.244,1.225
									c-0.023-0.422,0.048-0.831,0.07-1.247C610.102,310.282,610.135,309.868,610.262,309.466z"/>
							</g>
							<g>
								<path style="fill:#FFFFFF;" d="M610.163,309.591c0.414,0.083,0.793,0.254,1.19,0.379c0.374,0.182,0.767,0.318,1.125,0.542
									c-0.414-0.083-0.793-0.254-1.19-0.379C610.914,309.95,610.521,309.815,610.163,309.591z"/>
							</g>
						</g>
					</g>
					<g>
						<g>
							<g>
								<path style="fill:#FFFFFF;" d="M631.123,276.069c-0.289-0.782-0.487-1.589-0.734-2.383c-0.186-0.81-0.421-1.607-0.564-2.429
									c0.29,0.782,0.488,1.589,0.734,2.383C630.745,274.451,630.98,275.248,631.123,276.069z"/>
							</g>
							<g>
								<path style="fill:#FFFFFF;" d="M630.928,275.997c0.073-0.416,0.235-0.799,0.35-1.199c0.173-0.379,0.299-0.775,0.515-1.138
									c-0.073,0.416-0.235,0.799-0.349,1.199C631.269,275.238,631.143,275.634,630.928,275.997z"/>
							</g>
							<g>
								<path style="fill:#FFFFFF;" d="M631.054,275.898c-0.384-0.174-0.715-0.427-1.074-0.638
									c-0.324-0.262-0.676-0.483-0.974-0.782c0.385,0.174,0.715,0.427,1.074,0.638
									C630.403,275.378,630.756,275.599,631.054,275.898z"/>
							</g>
						</g>
						<g>
							<g>
								<path style="fill:#FFFFFF;" d="M630.869,275.785c0.568-0.611,1.2-1.15,1.798-1.728c0.64-0.531,1.246-1.099,1.916-1.597
									c-0.568,0.611-1.2,1.15-1.798,1.728C632.145,274.719,631.539,275.287,630.869,275.785z"/>
							</g>
							<g>
								<path style="fill:#FFFFFF;" d="M630.846,275.578c0.404-0.122,0.819-0.149,1.228-0.227c0.416-0.016,0.827-0.081,1.248-0.052
									c-0.404,0.122-0.819,0.15-1.228,0.227C631.678,275.541,631.267,275.607,630.846,275.578z"/>
							</g>
							<g>
								<path style="fill:#FFFFFF;" d="M630.991,275.645c-0.017-0.422,0.06-0.831,0.086-1.246c0.089-0.407,0.128-0.821,0.261-1.222
									c0.018,0.422-0.059,0.83-0.086,1.246C631.163,274.831,631.124,275.245,630.991,275.645z"/>
							</g>
						</g>
					</g>
					<g>
						<g>
							<g>
								<path style="fill:#FFFFFF;" d="M588.751,298.318c-0.29-0.782-0.487-1.589-0.734-2.383c-0.186-0.81-0.421-1.607-0.564-2.429
									c0.29,0.782,0.488,1.589,0.734,2.383C588.373,296.7,588.608,297.497,588.751,298.318z"/>
							</g>
							<g>
								<path style="fill:#FFFFFF;" d="M588.556,298.246c0.073-0.416,0.235-0.799,0.35-1.199c0.173-0.379,0.299-0.775,0.515-1.138
									c-0.073,0.416-0.235,0.799-0.35,1.199C588.897,297.487,588.771,297.883,588.556,298.246z"/>
							</g>
							<g>
								<path style="fill:#FFFFFF;" d="M588.681,298.147c-0.384-0.174-0.715-0.427-1.074-0.638
									c-0.324-0.262-0.676-0.483-0.974-0.782c0.385,0.174,0.715,0.427,1.074,0.638
									C588.031,297.627,588.383,297.848,588.681,298.147z"/>
							</g>
						</g>
						<g>
							<g>
								<path style="fill:#FFFFFF;" d="M588.497,298.034c0.568-0.611,1.2-1.15,1.798-1.728c0.64-0.531,1.246-1.099,1.915-1.596
									c-0.568,0.611-1.2,1.15-1.798,1.728C589.772,296.967,589.166,297.536,588.497,298.034z"/>
							</g>
							<g>
								<path style="fill:#FFFFFF;" d="M588.474,297.827c0.404-0.122,0.819-0.149,1.228-0.227c0.416-0.016,0.827-0.081,1.248-0.052
									c-0.404,0.122-0.819,0.15-1.228,0.227C589.305,297.79,588.895,297.856,588.474,297.827z"/>
							</g>
							<g>
								<path style="fill:#FFFFFF;" d="M588.619,297.894c-0.017-0.422,0.06-0.83,0.086-1.246c0.089-0.407,0.128-0.821,0.261-1.222
									c0.018,0.422-0.059,0.83-0.086,1.246C588.791,297.079,588.752,297.493,588.619,297.894z"/>
							</g>
						</g>
					</g>
					<g>
						<g>
							<g>
								<path style="fill:#FFFFFF;" d="M607.377,264.653c-0.223-1.463-0.325-2.933-0.437-4.403
									c-0.076-1.472-0.162-2.944-0.125-4.423c0.224,1.463,0.325,2.933,0.437,4.403
									C607.327,261.703,607.412,263.174,607.377,264.653z"/>
							</g>
							<g>
								<path style="fill:#FFFFFF;" d="M607.063,264.459c0.278-0.695,0.658-1.326,1.03-1.962c0.403-0.617,0.798-1.24,1.296-1.798
									c-0.277,0.695-0.658,1.326-1.03,1.962C607.956,263.278,607.561,263.901,607.063,264.459z"/>
							</g>
							<g>
								<path style="fill:#FFFFFF;" d="M607.316,264.33c-0.604-0.442-1.12-0.968-1.643-1.487c-0.497-0.544-1.002-1.082-1.418-1.704
									c0.604,0.442,1.12,0.968,1.643,1.487C606.396,263.171,606.9,263.709,607.316,264.33z"/>
							</g>
						</g>
						<g>
							<g>
								<path style="fill:#FFFFFF;" d="M607.035,264.069c1.206-0.857,2.473-1.61,3.736-2.371c1.281-0.73,2.556-1.469,3.894-2.102
									c-1.206,0.858-2.473,1.61-3.735,2.371C609.648,262.696,608.372,263.435,607.035,264.069z"/>
							</g>
							<g>
								<path style="fill:#FFFFFF;" d="M607.068,263.701c0.745-0.064,1.48-0.009,2.216,0.037c0.732,0.082,1.466,0.155,2.189,0.349
									c-0.745,0.066-1.48,0.009-2.216-0.037C608.524,263.967,607.79,263.894,607.068,263.701z"/>
							</g>
							<g>
								<path style="fill:#FFFFFF;" d="M607.297,263.869c0.124-0.738,0.361-1.436,0.589-2.137c0.263-0.689,0.515-1.381,0.884-2.033
									c-0.123,0.738-0.361,1.436-0.589,2.137C607.918,262.526,607.664,263.217,607.297,263.869z"/>
							</g>
						</g>
					</g>
					<g>
						<g>
							<g>
								<path style="fill:#FFFFFF;" d="M592.227,276.133c-1.247-0.797-2.42-1.69-3.598-2.574c-1.157-0.914-2.319-1.82-3.408-2.822
									c1.247,0.796,2.42,1.69,3.598,2.575C589.976,274.224,591.138,275.131,592.227,276.133z"/>
							</g>
							<g>
								<path style="fill:#FFFFFF;" d="M591.874,276.241c-0.339-0.667-0.563-1.369-0.796-2.069c-0.198-0.71-0.406-1.417-0.497-2.16
									c0.34,0.667,0.563,1.369,0.796,2.069C591.575,274.791,591.783,275.498,591.874,276.241z"/>
							</g>
							<g>
								<path style="fill:#FFFFFF;" d="M591.944,275.965c-0.73,0.162-1.466,0.203-2.202,0.255c-0.737,0.015-1.474,0.04-2.216-0.058
									c0.73-0.163,1.466-0.204,2.202-0.255C590.466,275.893,591.203,275.868,591.944,275.965z"/>
							</g>
						</g>
						<g>
							<g>
								<path style="fill:#FFFFFF;" d="M591.562,276.004c0.151-1.472,0.421-2.921,0.681-4.372c0.296-1.444,0.582-2.89,0.988-4.313
									c-0.15,1.472-0.42,2.921-0.681,4.372C592.254,273.135,591.967,274.581,591.562,276.004z"/>
							</g>
							<g>
								<path style="fill:#FFFFFF;" d="M591.307,275.737c0.443-0.603,0.97-1.119,1.489-1.641c0.545-0.496,1.083-1,1.706-1.415
									c-0.442,0.604-0.969,1.119-1.489,1.641C592.468,274.818,591.929,275.321,591.307,275.737z"/>
							</g>
							<g>
								<path style="fill:#FFFFFF;" d="M591.585,275.676c-0.473-0.579-0.841-1.218-1.218-1.852
									c-0.345-0.652-0.698-1.298-0.945-2.005c0.474,0.579,0.842,1.218,1.218,1.852
									C590.984,274.323,591.337,274.97,591.585,275.676z"/>
							</g>
						</g>
					</g>
					<g>
						<g>
							<g>
								<path style="fill:#FFFFFF;" d="M578.977,288.927c-1.247-0.797-2.419-1.69-3.598-2.574c-1.157-0.914-2.319-1.82-3.408-2.822
									c1.247,0.796,2.42,1.689,3.598,2.574C576.726,287.019,577.889,287.925,578.977,288.927z"/>
							</g>
							<g>
								<path style="fill:#FFFFFF;" d="M578.625,289.035c-0.339-0.667-0.563-1.369-0.796-2.069c-0.198-0.71-0.406-1.417-0.497-2.16
									c0.34,0.667,0.563,1.369,0.796,2.069C578.326,287.585,578.533,288.292,578.625,289.035z"/>
							</g>
							<g>
								<path style="fill:#FFFFFF;" d="M578.695,288.759c-0.73,0.162-1.466,0.203-2.202,0.255c-0.737,0.015-1.474,0.04-2.216-0.058
									c0.73-0.163,1.466-0.204,2.202-0.255C577.216,288.687,577.953,288.663,578.695,288.759z"/>
							</g>
						</g>
						<g>
							<g>
								<path style="fill:#FFFFFF;" d="M578.313,288.798c0.151-1.472,0.421-2.921,0.68-4.372c0.296-1.444,0.582-2.89,0.988-4.313
									c-0.15,1.472-0.42,2.921-0.681,4.372C579.004,285.929,578.718,287.375,578.313,288.798z"/>
							</g>
							<g>
								<path style="fill:#FFFFFF;" d="M578.058,288.531c0.443-0.603,0.97-1.119,1.489-1.642c0.545-0.496,1.083-1,1.706-1.415
									c-0.442,0.604-0.969,1.119-1.489,1.642C579.218,287.612,578.68,288.115,578.058,288.531z"/>
							</g>
							<g>
								<path style="fill:#FFFFFF;" d="M578.336,288.47c-0.473-0.579-0.841-1.218-1.218-1.852c-0.345-0.652-0.698-1.298-0.945-2.005
									c0.474,0.579,0.842,1.218,1.218,1.852C577.735,287.117,578.088,287.764,578.336,288.47z"/>
							</g>
						</g>
					</g>
					<g>
						<g>
							<g>
								<path style="fill:#FFFFFF;" d="M616.774,291.427c0.345-0.945,0.776-1.85,1.161-2.777c0.442-0.9,0.838-1.822,1.321-2.704
									c-0.344,0.945-0.776,1.85-1.161,2.777C617.653,289.624,617.256,290.545,616.774,291.427z"/>
							</g>
							<g>
								<path style="fill:#FFFFFF;" d="M616.661,291.093c0.737-0.02,1.466,0.055,2.199,0.079c0.728,0.087,1.461,0.123,2.185,0.255
									c-0.737,0.02-1.466-0.055-2.199-0.079C618.118,291.26,617.386,291.224,616.661,291.093z"/>
							</g>
							<g>
								<path style="fill:#FFFFFF;" d="M616.926,291.152c-0.128-0.698-0.161-1.402-0.244-2.103
									c-0.021-0.706-0.092-1.408-0.069-2.116c0.128,0.698,0.161,1.402,0.244,2.103
									C616.878,289.741,616.95,290.443,616.926,291.152z"/>
							</g>
						</g>
						<g>
							<path style="fill:#FFFFFF;" d="M616.774,291.427c0.594-0.73,1.258-1.394,1.884-2.093c0.672-0.656,1.307-1.347,2.011-1.971
								c-0.594,0.73-1.257,1.394-1.884,2.093C618.113,290.111,617.477,290.802,616.774,291.427z"/>
						</g>
					</g>
					<g>
						<g>
							<g>
								<path style="fill:#FFFFFF;" d="M588.487,314.287c-1.005-0.013-2.003-0.121-3.004-0.179c-0.996-0.12-1.997-0.19-2.989-0.354
									c1.006,0.013,2.003,0.121,3.004,0.179C586.494,314.053,587.494,314.123,588.487,314.287z"/>
							</g>
							<g>
								<path style="fill:#FFFFFF;" d="M588.208,314.504c-0.262-0.689-0.432-1.402-0.651-2.102
									c-0.159-0.716-0.366-1.419-0.481-2.147c0.262,0.689,0.433,1.402,0.652,2.102
									C587.885,313.074,588.093,313.777,588.208,314.504z"/>
							</g>
							<g>
								<path style="fill:#FFFFFF;" d="M588.177,314.234c-0.616,0.351-1.271,0.615-1.905,0.925
									c-0.659,0.253-1.298,0.552-1.975,0.764c0.616-0.351,1.271-0.615,1.905-0.925C586.861,314.745,587.5,314.446,588.177,314.234
									z"/>
							</g>
						</g>
						<g>
							<path style="fill:#FFFFFF;" d="M588.487,314.287c-0.885-0.32-1.731-0.727-2.598-1.087c-0.841-0.417-1.703-0.789-2.525-1.247
								c0.885,0.32,1.731,0.726,2.598,1.087C586.802,313.458,587.664,313.829,588.487,314.287z"/>
						</g>
					</g>
					<g>
						<g>
							<g>
								<path style="fill:#FFFFFF;" d="M599.984,290.933c0.345-0.945,0.776-1.85,1.161-2.777c0.442-0.901,0.838-1.822,1.321-2.704
									c-0.344,0.945-0.776,1.85-1.161,2.776C600.863,289.13,600.467,290.051,599.984,290.933z"/>
							</g>
							<g>
								<path style="fill:#FFFFFF;" d="M599.871,290.599c0.737-0.02,1.466,0.055,2.199,0.079c0.728,0.087,1.461,0.123,2.185,0.255
									c-0.737,0.02-1.466-0.055-2.199-0.079C601.328,290.767,600.596,290.73,599.871,290.599z"/>
							</g>
							<g>
								<path style="fill:#FFFFFF;" d="M600.137,290.658c-0.128-0.698-0.161-1.402-0.244-2.103
									c-0.021-0.706-0.092-1.408-0.068-2.116c0.128,0.698,0.161,1.402,0.244,2.103
									C600.089,289.248,600.16,289.949,600.137,290.658z"/>
							</g>
						</g>
						<g>
							<path style="fill:#FFFFFF;" d="M599.984,290.933c0.595-0.73,1.258-1.394,1.884-2.093c0.672-0.656,1.307-1.346,2.011-1.971
								c-0.594,0.73-1.257,1.394-1.884,2.093C601.323,289.618,600.688,290.308,599.984,290.933z"/>
						</g>
					</g>
					<g>
						<g>
							<g>
								<path style="fill:#FFFFFF;" d="M591.261,329.627c0.345-0.945,0.776-1.85,1.161-2.777c0.442-0.901,0.838-1.822,1.321-2.704
									c-0.344,0.945-0.776,1.85-1.161,2.776C592.14,327.824,591.743,328.745,591.261,329.627z"/>
							</g>
							<g>
								<path style="fill:#FFFFFF;" d="M591.148,329.293c0.736-0.02,1.466,0.055,2.199,0.079c0.728,0.087,1.461,0.123,2.186,0.255
									c-0.737,0.02-1.466-0.055-2.199-0.079C592.605,329.461,591.873,329.424,591.148,329.293z"/>
							</g>
							<g>
								<path style="fill:#FFFFFF;" d="M591.413,329.352c-0.128-0.698-0.161-1.402-0.244-2.103
									c-0.021-0.706-0.092-1.408-0.068-2.116c0.128,0.698,0.161,1.402,0.244,2.103
									C591.365,327.941,591.437,328.643,591.413,329.352z"/>
							</g>
						</g>
						<g>
							<path style="fill:#FFFFFF;" d="M591.261,329.627c0.595-0.73,1.258-1.394,1.884-2.093c0.672-0.656,1.307-1.346,2.011-1.971
								c-0.594,0.73-1.257,1.394-1.884,2.093C592.6,328.311,591.965,329.002,591.261,329.627z"/>
						</g>
					</g>
					<g>
						<g>
							<g>
								<path style="fill:#FFFFFF;" d="M599.17,321.298c0.345-0.945,0.776-1.85,1.161-2.776c0.442-0.901,0.838-1.822,1.321-2.704
									c-0.344,0.945-0.776,1.85-1.161,2.776C600.049,319.495,599.652,320.416,599.17,321.298z"/>
							</g>
							<g>
								<path style="fill:#FFFFFF;" d="M599.057,320.964c0.737-0.02,1.466,0.055,2.199,0.079c0.728,0.087,1.461,0.123,2.185,0.255
									c-0.737,0.02-1.466-0.055-2.199-0.079C600.514,321.131,599.782,321.095,599.057,320.964z"/>
							</g>
							<g>
								<path style="fill:#FFFFFF;" d="M599.322,321.023c-0.128-0.698-0.161-1.402-0.244-2.103
									c-0.021-0.706-0.092-1.408-0.069-2.116c0.128,0.698,0.161,1.402,0.244,2.103
									C599.274,319.612,599.346,320.314,599.322,321.023z"/>
							</g>
						</g>
						<g>
							<path style="fill:#FFFFFF;" d="M599.17,321.298c0.594-0.73,1.258-1.394,1.884-2.093c0.672-0.656,1.307-1.346,2.011-1.971
								c-0.594,0.73-1.257,1.394-1.884,2.093C600.509,319.982,599.873,320.673,599.17,321.298z"/>
						</g>
					</g>
				</g>
				<g>
					<path style="fill:#0A5487;" d="M582.531,333.544c0,0-4.86,14.917-1.78,30.493c0.791,3.999,4.015,7.075,8.054,7.622
						c6.709,0.909,16.939,1.381,21.081-3.241c0,0,3.95-20.789-0.706-33.88C609.18,334.539,596.499,337.95,582.531,333.544z"/>
					<g>
						<path style="opacity:0.38;fill:#0A5487;" d="M608.824,366.166c-13.867,3.805-27.308-7.32-26.929-21.694
							c0.107-4.055,0.547-7.751,1.058-10.802c-0.141-0.043-0.282-0.082-0.423-0.126c0,0-4.878,14.971-1.763,30.577
							c0.788,3.947,3.964,6.981,7.951,7.526c6.707,0.917,17.008,1.413,21.167-3.229c0,0,0.193-1.018,0.444-2.741
							C609.845,365.859,609.344,366.024,608.824,366.166z"/>
					</g>
				</g>
			</g>
			<g>
				<g style="opacity:0.25;">
					
						<ellipse transform="matrix(0.9269 -0.3754 0.3754 0.9269 -32.0165 120.367)" style="fill:#163A51;" cx="292.885" cy="142.346" rx="31.569" ry="31.569"/>
					
						<ellipse transform="matrix(0.2324 -0.9726 0.9726 0.2324 86.3593 394.1224)" style="fill:#163A51;" cx="292.885" cy="142.346" rx="27.032" ry="27.032"/>
					
						<line style="fill:none;stroke:#163A51;stroke-width:2.3228;stroke-linecap:round;stroke-miterlimit:10;" x1="292.343" y1="119.041" x2="292.343" y2="142.579"/>
					
						<line style="fill:none;stroke:#163A51;stroke-width:2.3228;stroke-linecap:round;stroke-miterlimit:10;" x1="309.329" y1="150.698" x2="291.847" y2="142.346"/>
				</g>
				<g>
					<g>
						<circle style="fill:#FFFFFB;" cx="289.567" cy="137.369" r="31.569"/>
						
							<ellipse transform="matrix(0.9264 -0.3765 0.3765 0.9264 -30.4112 119.1133)" style="fill:#84BDF1;" cx="289.567" cy="137.369" rx="27.032" ry="27.032"/>
						
							<line style="fill:none;stroke:#FFFFFB;stroke-width:2.3228;stroke-linecap:round;stroke-miterlimit:10;" x1="289.025" y1="114.064" x2="289.025" y2="137.602"/>
						
							<line style="fill:none;stroke:#FFFFFB;stroke-width:2.3228;stroke-linecap:round;stroke-miterlimit:10;" x1="306.011" y1="145.721" x2="288.529" y2="137.369"/>
					</g>
				</g>
			</g>
			<ellipse style="opacity:0.47;fill:#84BDF1;" cx="140.762" cy="367.792" rx="40.502" ry="6.755"/>
			<g>
				<path style="fill:#0A5487;" d="M116.274,309.343H92.218l8.917,60.781c0,0,19.701,8.088,43.549,0l10.458-60.781H116.274z"/>
				<g>
					<path style="fill:#0A5487;" d="M155.141,309.343c0,1.328-14.086,2.405-31.462,2.405s-31.462-1.077-31.462-2.405
						c0-1.11,9.832-2.044,23.201-2.321c2.632-0.055,5.402-0.084,8.261-0.084c1.724,0,3.416,0.011,5.065,0.031
						C143.713,307.154,155.141,308.146,155.141,309.343z"/>
					<path style="fill:#0A5487;" d="M155.141,309.343c0,1.328-14.086,2.405-31.462,2.405s-31.462-1.077-31.462-2.405
						c0-1.11,9.832-2.044,23.201-2.321c2.632-0.055,5.402-0.084,8.261-0.084c1.724,0,3.416,0.011,5.065,0.031
						C143.713,307.154,155.141,308.146,155.141,309.343z"/>
				</g>
				<g>
					<path style="fill:#9EC700;" d="M123.467,320.267c0,0,0.283-24.796-7.404-40.871c-7.687-16.075-14.421-64.587,21.012-107.068
						c0,0,2.129,15.311-4.037,30.265c-6.166,14.954-4.022,19.98,0.181,28.843c4.203,8.863-3.427,16.117-5.167,26.493
						C126.737,265.777,146.754,284.122,123.467,320.267z"/>
					<path style="opacity:0.5;fill:#9EC700;" d="M119.555,260.528c2.271,16.805,9.329,29.733,3.995,59.608
						c23.154-36.057,3.189-54.369,4.503-62.207c1.739-10.377,9.369-17.63,5.167-26.493c-4.203-8.864-6.347-13.889-0.181-28.843
						c6.166-14.954,4.037-30.265,4.037-30.265S113.654,216.857,119.555,260.528z"/>
				</g>
				<g>
					<path style="fill:#9EC700;" d="M131.698,319.622c0,0,3.079-16.384,10.263-25.969c7.184-9.585,18.012-40.68,0.247-73.351
						c0,0-3.42,9.813-1.324,20.484c2.096,10.671,0.021,13.701-3.917,18.991c-3.938,5.29,0.137,11.076-0.083,18.146
						C136.718,283.269,121.106,292.727,131.698,319.622z"/>
					<path style="opacity:0.5;fill:#9EC700;" d="M142.144,280.754c-3.71,10.78-10.065,18.373-10.483,38.77
						c-10.516-26.82,5.057-36.262,5.223-41.603c0.22-7.07-3.855-12.856,0.082-18.146c3.938-5.29,6.013-8.32,3.917-18.991
						c-2.096-10.671,1.324-20.484,1.324-20.484S151.785,252.741,142.144,280.754z"/>
				</g>
				<g>
					<path style="fill:#9EC700;" d="M56.586,247.113c0,0,10.121,13.247,20.849,18.576c10.729,5.328,34.387,28.228,33.22,65.398
						c0,0-7.469-7.226-10.398-17.698c-2.929-10.473-6.146-12.246-12.042-15.198c-5.897-2.953-4.861-9.954-8.237-16.169
						C77.424,277.321,59.226,275.898,56.586,247.113z"/>
					<path style="opacity:0.5;fill:#9EC700;" d="M83.401,277.126c-8.163-7.958-17.255-11.881-26.804-29.909
						c2.674,28.683,20.83,30.11,23.381,34.805c3.377,6.215,2.341,13.216,8.237,16.169c5.897,2.953,9.114,4.726,12.042,15.198
						c2.929,10.473,10.398,17.698,10.398,17.698S104.614,297.806,83.401,277.126z"/>
				</g>
				<g>
					<path style="fill:#9EC700;" d="M126.692,323.6c0,0,8.173-11.436,17.07-16.214c8.898-4.778,28.22-24.712,26.237-56.004
						c0,0-6.1,6.29-8.287,15.194c-2.187,8.904-4.85,10.484-9.74,13.131c-4.89,2.647-3.828,8.518-6.507,13.847
						C143.44,297.584,128.143,299.272,126.692,323.6z"/>
					<path style="opacity:0.5;fill:#9EC700;" d="M148.482,297.588c-6.665,6.926-14.222,10.476-21.784,25.925
						c1.483-24.243,16.745-25.934,18.768-29.959c2.679-5.328,1.617-11.2,6.507-13.847c4.89-2.647,7.553-4.227,9.74-13.131
						c2.187-8.904,8.287-15.194,8.287-15.194S165.802,279.59,148.482,297.588z"/>
				</g>
				<g>
					<path style="fill:#9EC700;" d="M120.384,322.53c0,0-6.764-22.331-18.211-34.58c-11.447-12.249-31.219-53.875-11.447-102.023
						c0,0,6.244,13.136,4.943,28.301c-1.301,15.164,2.046,19.067,8.325,25.831c6.28,6.764,1.486,15.432,2.862,25.236
						C107.897,272.709,131.051,283.506,120.384,322.53z"/>
					<path style="opacity:0.5;fill:#9EC700;" d="M99.966,270.032c6.794,14.437,16.786,24.041,20.455,52.358
						c10.572-38.909-12.526-49.689-13.565-57.095c-1.376-9.804,3.418-18.471-2.862-25.236c-6.28-6.764-9.626-10.667-8.325-25.831
						c1.301-15.164-4.943-28.301-4.943-28.301S82.312,232.514,99.966,270.032z"/>
				</g>
				<path style="fill:#0A5487;" d="M123.68,311.747c-17.376,0-31.462-1.077-31.462-2.405l8.917,60.781c0,0,19.701,8.088,43.549,0
					l10.458-60.781C155.142,310.671,141.056,311.747,123.68,311.747z"/>
				<path style="opacity:0.2;fill:#0A5487;" d="M99.722,327.326l-2.447-16.676c-3.195-0.376-5.057-0.825-5.057-1.307l8.917,60.781
					c0,0,19.701,8.088,43.549,0l1.384-8.042C124.183,365.226,103.059,350.074,99.722,327.326z"/>
			</g>
		</g>
	</g>
</g>
<g id="DESIGNED_BY_FREEPIK">
	<g>
		<g id="XMLID_29_">
			<g id="XMLID_48_">
				<path id="XMLID_56_" style="fill:#050D0F;" d="M385.104,472.129c-0.432,0.443-0.803,0.931-1.108,1.453l-0.465-0.241
					c-0.067-0.298-0.349-0.503-0.659-0.466c-0.331,0.039-0.568,0.339-0.529,0.67c0.039,0.331,0.339,0.568,0.67,0.529
					c0.066-0.008,0.127-0.026,0.184-0.052l0.451,0.234c-0.251,0.554-0.433,1.139-0.539,1.744l0.746,0.132
					c0.23-1.306,0.85-2.507,1.792-3.473L385.104,472.129z"/>
				<path id="XMLID_55_" style="fill:#050D0F;" d="M390.592,469.827c-0.171,0-0.341,0.006-0.51,0.017l-0.074-0.626
					c0.188-0.149,0.296-0.389,0.266-0.644c-0.046-0.393-0.402-0.674-0.795-0.628c-0.393,0.046-0.674,0.402-0.628,0.795
					c0.03,0.254,0.189,0.461,0.404,0.564l0.074,0.624c-0.714,0.116-1.403,0.332-2.06,0.646l0.327,0.684
					c0.934-0.447,1.942-0.673,2.995-0.673c0.496,0,0.993,0.053,1.475,0.158l0.161-0.741
					C391.692,469.885,391.142,469.827,390.592,469.827z"/>
				<path id="XMLID_54_" style="fill:#050D0F;" d="M397.194,472.374c0.331-0.04,0.566-0.341,0.526-0.672
					c-0.04-0.331-0.341-0.566-0.672-0.526c-0.309,0.038-0.535,0.304-0.53,0.609l-0.416,0.363c-0.418-0.43-0.889-0.813-1.408-1.139
					l-0.404,0.641c1.134,0.715,2.021,1.726,2.563,2.925l0.69-0.313c-0.251-0.554-0.567-1.072-0.942-1.545l0.402-0.351
					C397.065,472.379,397.129,472.382,397.194,472.374z"/>
				<path id="XMLID_53_" style="fill:#050D0F;" d="M390.044,480.035c-0.386,0.023-0.775,0.035-1.157,0.035
					c-0.88,0-1.733-0.061-2.478-0.179c-0.39-0.062-0.846-0.155-1.27-0.292c1.046,1.861,3.069,3.125,5.388,3.125
					c2.855,0,5.262-1.916,5.95-4.504c-0.682,0.449-1.505,0.825-2.459,1.123C392.839,479.71,391.463,479.95,390.044,480.035z"/>
				<path id="XMLID_49_" style="fill:#050D0F;" d="M390.592,471.343c-3.352,0-6.08,2.666-6.08,5.944
					c0,0.426,0.046,0.849,0.137,1.261c0.673,0.483,2.706,0.89,5.348,0.731c2.879-0.173,5.297-0.957,6.672-2.159
					c-0.006-0.195-0.021-0.39-0.045-0.582C396.244,473.576,393.65,471.343,390.592,471.343z M388.432,477.858
					c-1.02,0-1.85-0.83-1.85-1.85c0-1.02,0.83-1.85,1.85-1.85c1.02,0,1.85,0.83,1.85,1.85
					C390.282,477.028,389.452,477.858,388.432,477.858z M393.17,476.949c-0.75,0-1.36-0.61-1.36-1.36c0-0.75,0.61-1.361,1.36-1.361
					c0.75,0,1.361,0.61,1.361,1.361C394.53,476.339,393.92,476.949,393.17,476.949z"/>
			</g>
			<path id="XMLID_46_" style="fill:#050D0F;" d="M406.595,473.21c-0.295-0.116-0.805-0.309-1.382-0.237
				c-0.551,0.068-0.844,0.34-0.844,1.007v0.866h2.228v1.717h-2.228v5.455h-1.932v-5.455h-1.34v-1.717h1.34v-0.888
				c0-1.68,0.896-2.783,2.568-2.783c0.643,0,1.157,0.122,1.59,0.308L406.595,473.21z"/>
			<path id="XMLID_44_" style="fill:#050D0F;" d="M411.298,476.542c-0.177-0.03-0.358-0.046-0.526-0.046
				c-0.895,0-1.51,0.548-1.51,1.613v3.908h-1.932v-7.172h1.873v0.785c0.451-0.674,1.14-0.977,2.021-0.977
				c0.414,0,0.848,0.128,1.094,0.337L411.298,476.542z"/>
			<path id="XMLID_41_" style="fill:#050D0F;" d="M418.965,478.42c0,0.222-0.015,0.489-0.037,0.651h-5.085
				c0.207,1.036,0.933,1.488,1.843,1.488c0.622,0,1.295-0.252,1.813-0.688l1.133,1.243c-0.814,0.748-1.85,1.088-3.057,1.088
				c-2.198,0-3.723-1.495-3.723-3.753c0-2.257,1.48-3.797,3.627-3.797C417.544,474.653,418.958,476.185,418.965,478.42z
				 M413.851,477.754h3.175c-0.177-0.918-0.733-1.436-1.562-1.436C414.554,476.318,414.021,476.866,413.851,477.754z"/>
			<path id="XMLID_38_" style="fill:#050D0F;" d="M426.618,478.42c0,0.222-0.015,0.489-0.037,0.651h-5.085
				c0.207,1.036,0.932,1.488,1.843,1.488c0.622,0,1.295-0.252,1.814-0.688l1.132,1.243c-0.814,0.748-1.85,1.088-3.057,1.088
				c-2.198,0-3.723-1.495-3.723-3.753c0-2.257,1.48-3.797,3.627-3.797C425.197,474.653,426.611,476.185,426.618,478.42z
				 M421.504,477.754h3.175c-0.178-0.918-0.733-1.436-1.562-1.436C422.207,476.318,421.674,476.866,421.504,477.754z"/>
			<path id="XMLID_35_" style="fill:#050D0F;" d="M434.964,478.427c0,2.154-1.495,3.775-3.471,3.775
				c-0.962,0-1.643-0.378-2.109-0.933v3.708h-1.924v-10.133h1.887v0.792c0.466-0.585,1.155-0.984,2.139-0.984
				C433.469,474.653,434.964,476.273,434.964,478.427z M429.287,478.427c0,1.132,0.747,1.976,1.843,1.976
				c1.14,0,1.85-0.881,1.85-1.976c0-1.095-0.711-1.976-1.85-1.976C430.035,476.451,429.287,477.295,429.287,478.427z"/>
			<path id="XMLID_32_" style="fill:#050D0F;" d="M438.067,472.499c0,0.696-0.54,1.229-1.236,1.229
				c-0.696,0-1.229-0.533-1.229-1.229c0-0.696,0.533-1.243,1.229-1.243C437.527,471.255,438.067,471.803,438.067,472.499z
				 M437.809,482.017h-1.932v-7.172h1.932V482.017z"/>
			<path id="XMLID_30_" style="fill:#050D0F;" d="M441.032,477.399l2.702-2.554h2.368l-3.479,3.375l3.501,3.797h-2.376l-2.716-2.901
				v2.901H439.1v-10.658h1.932V477.399z"/>
		</g>
		<g>
			<path style="fill:#050D0F;" d="M309.412,481.952v-1.055c-0.527,0.718-1.391,1.23-2.387,1.23c-1.846,0-3.149-1.406-3.149-3.706
				c0-2.256,1.289-3.721,3.149-3.721c0.952,0,1.816,0.469,2.387,1.245v-3.765h1.099v9.77H309.412z M309.412,480.033v-3.208
				c-0.395-0.615-1.245-1.143-2.124-1.143c-1.421,0-2.27,1.172-2.27,2.739c0,1.567,0.85,2.724,2.27,2.724
				C308.168,481.146,309.017,480.649,309.412,480.033z"/>
			<path style="fill:#050D0F;" d="M311.932,478.407c0-2.051,1.465-3.706,3.486-3.706c2.139,0,3.398,1.67,3.398,3.794v0.279h-5.727
				c0.088,1.333,1.026,2.446,2.549,2.446c0.806,0,1.626-0.322,2.182-0.893l0.527,0.718c-0.703,0.703-1.655,1.084-2.812,1.084
				C313.44,482.128,311.932,480.619,311.932,478.407z M315.404,475.61c-1.509,0-2.256,1.274-2.315,2.358h4.643
				C317.718,476.913,317.015,475.61,315.404,475.61z"/>
			<path style="fill:#050D0F;" d="M319.607,481.014l0.571-0.791c0.469,0.542,1.362,1.011,2.329,1.011c1.084,0,1.67-0.513,1.67-1.216
				c0-1.714-4.38-0.659-4.38-3.281c0-1.098,0.952-2.036,2.636-2.036c1.201,0,2.051,0.454,2.622,1.026l-0.513,0.762
				c-0.424-0.513-1.201-0.894-2.109-0.894c-0.967,0-1.567,0.483-1.567,1.113c0,1.553,4.38,0.527,4.38,3.281
				c0,1.187-0.952,2.139-2.783,2.139C321.306,482.128,320.325,481.776,319.607,481.014z"/>
			<path style="fill:#050D0F;" d="M326.477,473.134c0-0.41,0.337-0.747,0.732-0.747c0.41,0,0.747,0.337,0.747,0.747
				c0,0.41-0.337,0.732-0.747,0.732C326.814,473.866,326.477,473.544,326.477,473.134z M326.667,481.952v-7.075h1.099v7.075H326.667
				z"/>
			<path style="fill:#050D0F;" d="M329.582,483.768l0.556-0.82c0.586,0.703,1.289,0.967,2.3,0.967c1.172,0,2.27-0.571,2.27-2.124
				v-1.011c-0.513,0.718-1.377,1.26-2.373,1.26c-1.845,0-3.149-1.377-3.149-3.662c0-2.27,1.289-3.677,3.149-3.677
				c0.952,0,1.802,0.469,2.373,1.245v-1.069h1.099v6.87c0,2.344-1.641,3.076-3.369,3.076
				C331.237,484.823,330.417,484.589,329.582,483.768z M334.709,479.916v-3.091c-0.381-0.615-1.23-1.143-2.109-1.143
				c-1.421,0-2.27,1.128-2.27,2.695c0,1.553,0.849,2.695,2.27,2.695C333.478,481.073,334.328,480.531,334.709,479.916z"/>
			<path style="fill:#050D0F;" d="M342.413,481.952v-4.629c0-1.245-0.63-1.641-1.582-1.641c-0.865,0-1.685,0.527-2.095,1.099v5.17
				h-1.099v-7.075h1.099v1.025c0.498-0.586,1.465-1.201,2.519-1.201c1.48,0,2.256,0.747,2.256,2.285v4.966H342.413z"/>
			<path style="fill:#050D0F;" d="M344.932,478.407c0-2.051,1.465-3.706,3.486-3.706c2.138,0,3.398,1.67,3.398,3.794v0.279h-5.727
				c0.088,1.333,1.025,2.446,2.549,2.446c0.806,0,1.626-0.322,2.183-0.893l0.527,0.718c-0.703,0.703-1.655,1.084-2.812,1.084
				C346.441,482.128,344.932,480.619,344.932,478.407z M348.404,475.61c-1.509,0-2.256,1.274-2.314,2.358h4.643
				C350.718,476.913,350.015,475.61,348.404,475.61z"/>
			<path style="fill:#050D0F;" d="M358.35,481.952v-1.055c-0.527,0.718-1.392,1.23-2.388,1.23c-1.846,0-3.149-1.406-3.149-3.706
				c0-2.256,1.289-3.721,3.149-3.721c0.952,0,1.817,0.469,2.388,1.245v-3.765h1.098v9.77H358.35z M358.35,480.033v-3.208
				c-0.396-0.615-1.245-1.143-2.124-1.143c-1.421,0-2.27,1.172-2.27,2.739c0,1.567,0.849,2.724,2.27,2.724
				C357.105,481.146,357.954,480.649,358.35,480.033z"/>
			<path style="fill:#050D0F;" d="M364.692,481.952v-9.77h1.099v3.765c0.572-0.776,1.421-1.245,2.388-1.245
				c1.845,0,3.149,1.465,3.149,3.721c0,2.299-1.304,3.706-3.149,3.706c-0.996,0-1.86-0.513-2.388-1.23v1.055H364.692z
				 M367.9,481.146c1.436,0,2.286-1.157,2.286-2.724c0-1.567-0.85-2.739-2.286-2.739c-0.864,0-1.728,0.527-2.109,1.143v3.208
				C366.171,480.649,367.036,481.146,367.9,481.146z"/>
			<path style="fill:#050D0F;" d="M372.529,483.724c0.161,0.073,0.425,0.117,0.601,0.117c0.483,0,0.806-0.161,1.055-0.747
				l0.469-1.069l-2.959-7.148h1.187l2.358,5.801l2.344-5.801h1.201l-3.545,8.51c-0.425,1.025-1.143,1.421-2.08,1.435
				c-0.234,0-0.601-0.044-0.806-0.103L372.529,483.724z"/>
		</g>
	</g>
</g>
</svg>
