<?xml version="1.0" encoding="utf-8"?>
<!-- Generator: Adobe Illustrator 27.5.0, SVG Export Plug-In . SVG Version: 6.00 Build 0)  -->
<svg version="1.1" xmlns="http://www.w3.org/2000/svg" xmlns:xlink="http://www.w3.org/1999/xlink" x="0px" y="0px"
	 viewBox="0 0 500 500" style="enable-background:new 0 0 500 500;" xml:space="preserve">
<g id="BACKGROUND">
	<rect style="fill:#FFFFFF;" width="500" height="500"/>
</g>
<g id="OBJECTS">
	<path style="fill:#DCF8FF;" d="M433.61,248.492c1.889-19.026-14.361-32.946-17.177-50.913c-1.517-9.681,0.431-19.477-0.15-29.199
		c-0.249-4.164-0.981-8.336-2.734-12.148c-1.948-4.236-5.151-7.434-8.486-10.603c-6.24-5.929-10.617-12.908-15.017-20.238
		c-3.811-6.347-7.788-12.982-13.684-17.632c-15.643-12.335-33.211-0.267-48.89,5.183c-21.655,7.527-42.507-2.614-61.123-13.276
		c-17.014-9.745-35.553-21.135-55.974-19.975c-4.625,0.263-9.197,1.25-13.473,3.043c-3.857,1.618-7.333,3.931-10.911,6.065
		c-0.151-0.112-0.352-0.143-0.561,0.002c-5.106,3.552-9.992,4.693-16.096,3.53c-4.398-0.838-8.641-2.276-13.146-2.476
		c-2.884-0.128-5.809,0.148-8.624,0.839c-13.091,2.271-25.219,9.27-34.013,19.305c-5.349,6.103-9.451,13.309-11.702,21.12
		c-2.798,9.709-2.519,19.935-4.106,29.847c-0.834,5.208-2.192,10.368-4.733,15.023c-2.511,4.599-5.993,8.555-9.491,12.419
		c-6.352,7.019-12.241,13.996-15.131,23.189c-2.756,8.77-2.878,18.294-0.265,27.11c2.807,9.472,8.288,17.871,11.318,27.257
		c1.756,5.441,2.27,10.903,1.886,16.596c-0.369,5.473-1.149,10.898-0.854,16.396c0.53,9.841,3.668,19.491,9.052,27.746
		c10.527,16.139,28.155,26.735,44.047,36.904c8.796,5.628,17.969,10.876,27.958,14.075c8.74,2.799,17.923,3.759,27.072,3.45
		c18.357-0.62,36.163-5.844,53.988-9.781c18.138-4.006,37.384-7.083,55.534-1.456c9.987,3.096,18.711,9.329,28.903,11.849
		c9.115,2.254,18.658,1.814,27.739-0.381c9.504-2.297,18.523-6.408,26.916-11.372c8.215-4.859,16.27-10.504,23.042-17.265
		c6.155-6.145,11.281-13.696,12.553-22.463c1.559-10.743-2.853-21.288-1.738-32.032C417.4,280.283,431.826,266.456,433.61,248.492z"
		/>
	<g>
		<path style="fill:#3E3578;" d="M132.72,163.357c-0.07,0.144-1.822,6.233-1.822,6.233l8.549,21.948l9.063-16.923l-7.223-18.336
			L132.72,163.357z"/>
		<polygon style="fill:#E0A951;" points="126.079,156.133 130.898,169.59 144.12,161.411 141.855,154.58 		"/>
	</g>
	<g>
		<g>
			<path style="fill:#B4ADF7;" d="M361.011,402.483H149.269c-3.204,0-6.136-1.164-8.396-3.091c-2.785-2.375-4.551-5.91-4.551-9.857
				V102.234c0-4.923,2.748-9.205,6.794-11.395c1.831-0.991,3.927-1.553,6.154-1.553h211.742c3.241,0,6.204,1.191,8.475,3.159
				c2.74,2.374,4.472,5.879,4.472,9.789v287.301c0,3.575-1.449,6.812-3.792,9.155C367.824,401.034,364.587,402.483,361.011,402.483z
				"/>
			<rect x="144.517" y="108.025" style="fill:#9E92E6;" width="215.519" height="282.719"/>
			<rect x="147.381" y="104.525" style="fill:#FFFFFF;" width="215.519" height="282.719"/>
			<g>
				<g>
					<path style="fill:#9E92E6;" d="M168.076,113.899L168.076,113.899c-0.691,0-1.316-0.28-1.769-0.733
						c-0.453-0.453-0.733-1.078-0.733-1.769V89.239c0-0.797,0.373-1.507,0.954-1.966c0.426-0.336,0.964-0.536,1.548-0.536l0,0
						c0.691,0,1.316,0.28,1.769,0.733c0.453,0.453,0.733,1.078,0.733,1.769v22.159c0,0.689-0.278,1.313-0.729,1.765
						C169.396,113.618,168.769,113.899,168.076,113.899z"/>
				</g>
				<g>
					<path style="fill:#9E92E6;" d="M211.696,113.899L211.696,113.899c-0.691,0-1.316-0.28-1.769-0.733
						c-0.453-0.453-0.733-1.078-0.733-1.769V89.239c0-0.797,0.373-1.507,0.954-1.966c0.426-0.336,0.964-0.536,1.548-0.536l0,0
						c0.691,0,1.316,0.28,1.769,0.733s0.733,1.078,0.733,1.769v22.159c0,0.689-0.278,1.313-0.729,1.765
						C213.016,113.618,212.389,113.899,211.696,113.899z"/>
				</g>
				<g>
					<path style="fill:#9E92E6;" d="M255.317,113.899L255.317,113.899c-0.691,0-1.316-0.28-1.769-0.733
						c-0.453-0.453-0.733-1.078-0.733-1.769V89.239c0-0.797,0.373-1.507,0.954-1.966c0.426-0.336,0.964-0.536,1.548-0.536l0,0
						c0.691,0,1.316,0.28,1.769,0.733c0.453,0.453,0.733,1.078,0.733,1.769v22.159c0,0.689-0.279,1.313-0.729,1.765
						C256.637,113.618,256.009,113.899,255.317,113.899z"/>
				</g>
				<g>
					<path style="fill:#9E92E6;" d="M298.937,113.899L298.937,113.899c-0.691,0-1.317-0.28-1.769-0.733
						c-0.453-0.453-0.733-1.078-0.733-1.769V89.239c0-0.797,0.373-1.507,0.954-1.966c0.426-0.336,0.964-0.536,1.548-0.536l0,0
						c0.691,0,1.316,0.28,1.769,0.733c0.453,0.453,0.733,1.078,0.733,1.769v22.159c0,0.689-0.278,1.313-0.729,1.765
						C300.257,113.618,299.63,113.899,298.937,113.899z"/>
				</g>
				<g>
					<path style="fill:#9E92E6;" d="M342.557,113.899L342.557,113.899c-0.691,0-1.316-0.28-1.769-0.733
						c-0.453-0.453-0.733-1.078-0.733-1.769V89.239c0-0.797,0.373-1.507,0.954-1.966c0.426-0.336,0.964-0.536,1.548-0.536l0,0
						c0.691,0,1.316,0.28,1.769,0.733c0.453,0.453,0.733,1.078,0.733,1.769v22.159c0,0.689-0.278,1.313-0.729,1.765
						C343.878,113.618,343.25,113.899,342.557,113.899z"/>
				</g>
			</g>
		</g>
		<g>
			<g>
				<path style="fill:#CFCAFF;" d="M208.736,174.487l-44.429,8.283l-8.283-44.429l44.429-8.283L208.736,174.487z M166.707,179.27
					l38.531-7.183l-7.183-38.531l-38.531,7.183L166.707,179.27z"/>
			</g>
			<g>
				<rect x="244.268" y="155.405" style="fill:#CFCAFF;" width="41.375" height="4.825"/>
				<rect x="244.268" y="165.384" style="fill:#CFCAFF;" width="95.08" height="4.825"/>
				<rect x="244.268" y="175.364" style="fill:#CFCAFF;" width="95.08" height="4.825"/>
				<rect x="244.268" y="185.343" style="fill:#CFCAFF;" width="95.08" height="4.825"/>
				<rect x="244.268" y="195.322" style="fill:#CFCAFF;" width="95.08" height="4.825"/>
			</g>
			<g>
				<g>
					<path style="fill:#CFCAFF;" d="M221.529,278.07h-45.194v-45.194h45.194V278.07z M179.335,275.07h39.194v-39.194h-39.194V275.07
						z"/>
				</g>
				<g>
					<polygon style="fill:#F47D9D;" points="199.611,267.401 182.551,251.373 187.344,246.272 198.253,256.521 216.7,227.632 
						222.599,231.399 					"/>
				</g>
				<g>
					<rect x="244.268" y="232.875" style="fill:#CFCAFF;" width="41.375" height="4.826"/>
					<rect x="244.268" y="242.855" style="fill:#CFCAFF;" width="95.08" height="4.825"/>
					<rect x="244.268" y="252.834" style="fill:#CFCAFF;" width="95.08" height="4.826"/>
					<rect x="244.268" y="262.813" style="fill:#CFCAFF;" width="95.08" height="4.825"/>
					<rect x="244.268" y="272.792" style="fill:#CFCAFF;" width="95.08" height="4.826"/>
				</g>
			</g>
			<g>
				<g>
					<path style="fill:#CFCAFF;" d="M221.529,355.54h-45.194v-45.194h45.194V355.54z M179.335,352.54h39.194v-39.194h-39.194V352.54
						z"/>
				</g>
				<g>
					<polygon style="fill:#F47D9D;" points="199.611,344.871 182.551,328.844 187.344,323.742 198.253,333.991 216.7,305.102 
						222.599,308.87 					"/>
				</g>
				<g>
					<rect x="244.268" y="310.345" style="fill:#CFCAFF;" width="41.375" height="4.825"/>
					<rect x="244.268" y="320.325" style="fill:#CFCAFF;" width="95.08" height="4.825"/>
					<rect x="244.268" y="330.304" style="fill:#CFCAFF;" width="95.08" height="4.825"/>
					<rect x="244.268" y="340.283" style="fill:#CFCAFF;" width="95.08" height="4.825"/>
					<rect x="244.268" y="350.263" style="fill:#CFCAFF;" width="95.08" height="4.825"/>
				</g>
			</g>
		</g>
	</g>
	<g>
		<path style="fill:#F9CDD9;" d="M379.743,350.5c-0.536,0.57-6.049,6.453-6.049,6.453l-15.969,61.035h9.942l25.297-63.012
			l10.341,1.859c0,0-3.672,25.052,4.258,59.821l8.742-0.76c0,0-2.541-40.684,4.357-57.201l-17.356-18.882L379.743,350.5z"/>
		<polygon style="fill:#E0AFBE;" points="373.832,357.639 388.904,365.086 390.849,360.242 383.337,353.05 		"/>
		<path style="fill:#E0AFBE;" d="M402.602,365.556l18.057-6.859l-12.386-3.032l-5.388,5.218
			C402.886,360.882,402.656,364.17,402.602,365.556z"/>
		<path style="fill:#E0A951;" d="M413.486,279.579h3.679c0,0,11.604,10.16,12.826,18.224c1.222,8.064-4.814,16.734-4.814,16.734
			l-8.012-3.209c0,0,4.688-8.94,2.625-13.525c-2.063-4.585-7.909-5.562-7.909-5.562L413.486,279.579z"/>
		<polygon style="fill:#F47D9D;" points="408.099,297.803 435.378,308.004 425.062,339.065 405.8,332.188 		"/>
		<path style="fill:#F9CDD9;" d="M345.447,246.868l0.132-2.724c0,0-7.49-12.698-9.369-13.246c-1.879-0.548,2.405,7.738,2.114,7.985
			c-0.291,0.247-2.8,5.054-1.819,6.901c0.981,1.847,2.589,3.247,2.589,3.247L345.447,246.868z"/>
		<path style="fill:#EFBF5B;" d="M387.605,271.353c0,0-29.621-1.926-42.026-27.21c0,0-6.045,1.34-6.583,5.379
			c0,0,13.202,26.763,42.62,35.57c0,0,3.977,8.203,0.403,26.442c-3.574,18.239-11.298,45.419-11.298,45.419
			s30.853,7.529,49.939,1.743c0,0,3.081-15.816-3.003-33.544s-0.634-41.733-0.634-41.733L387.605,271.353z"/>
		<path style="fill:#F9CDD9;" d="M386.099,237.774c0,0-1.636,2.779-2.744,8.314c-1.108,5.535-4.133,4.811-3.505,6.377
			c0.628,1.566,1.2,3.058,0.955,5.907c-0.245,2.849,4.092,9.171,8.764,10.479s16.231-20.7,16.231-20.7l-6.761-11.358
			L386.099,237.774z"/>
		<path style="fill:#3E3578;" d="M386.099,237.774c0,0,3.645,8.852,0.85,17.379c-2.795,8.527-10.912,17.227-5.183,28.209
			c5.728,10.982,33.534,10.437,38.895,2.077c5.361-8.36-3.106-8.885-2.968-22.535c0.138-13.649-1.721-28.835-14.751-31.018
			C389.442,229.625,386.099,237.774,386.099,237.774z"/>
		<path style="fill:#3E3578;" d="M357.724,417.988l-1.415,4.289l-9.687,1.086c-0.388,0.043-0.761,0.143-1.108,0.292
			c-1.068,0.456-1.901,1.372-2.235,2.525l-0.229,0.792c-0.185,0.637,0.082,1.273,0.58,1.614c0.232,0.159,0.514,0.253,0.823,0.253
			h20.055l3.158-10.85H357.724z"/>
		<path style="fill:#3E3578;" d="M407.562,416.658l0.927,4.212l-6.401,1.952c-0.702,0.215-1.323,0.595-1.824,1.091
			c-0.682,0.675-1.141,1.566-1.277,2.555l-0.256,1.858c-0.073,0.531,0.212,1.004,0.641,1.222c0.234,0.119,0.512,0.162,0.797,0.097
			l18.577-4.224c0,0-2.279-6.282-2.442-9.524L407.562,416.658z"/>
		<polygon style="fill:#9E92E6;" points="357.724,417.988 358.96,413.267 369.377,413.727 367.546,418.401 		"/>
		<path style="fill:#9E92E6;" d="M407.562,416.658c0,0-0.738-3.336-0.963-4.447l9.484-0.968c0,0,0.094,2.226,0.22,4.655
			L407.562,416.658z"/>
	</g>
	<g>
		<path style="fill:#3E3578;" d="M91.538,337.997c0,0-1.691,10.735,2.089,23.511c3.78,12.776,6.782,18.137,6.567,28.429
			c-0.214,10.292-4.127,20.221-4.127,20.221s9.907,0.391,10.121,0c0.214-0.391,5.754-12.808,6.169-26.056
			c0.415-13.248-0.743-28.624-0.743-28.624l7.749-1.272c0,0,21.551,30.953,31.102,56.04l10.799-2.34c0,0-9.181-29.958-21.536-53.142
			c-6.964-13.068-8.052-26.185-8.052-26.185L91.538,337.997z"/>
		<path style="fill:#E0A951;" d="M100.508,279.965c-0.548,0.282-19.059,23.378-19.471,32.534
			c-0.411,9.157,24.349-3.496,24.349-3.496l6.228-17.651L100.508,279.965z"/>
		<g>
			<path style="fill:#F47D9D;" d="M187.669,287.668L72.525,328.193c-0.717,0.251-1.457,0.289-2.151,0.147
				c-1.349-0.277-2.522-1.234-3.011-2.628l-2.512-7.16c-0.486-1.386-0.174-2.858,0.695-3.915c0.454-0.553,1.061-0.993,1.786-1.247
				l115.143-40.526L187.669,287.668z"/>
			<polygon style="fill:#F9CDD9;" points="182.476,272.865 198.932,276.413 187.669,287.668 			"/>
		</g>
		<path style="fill:#F9CDD9;" d="M114.776,241.946c0,0,4.681,4.679,5.618,9.301c0.872,4.299,3.008,4.798,3.106,6.156
			c0.098,1.358-1.488,1.349-0.938,2.563c0.55,1.214,1.099,6.896-1.142,9.118c-2.241,2.222-3.477,1.063-3.477,1.063v6.518
			l-5.408-0.337l-9.465-8.113l0.579-20.732L114.776,241.946z"/>
		<path style="fill:#EFBF5B;" d="M112.379,275.319c0,0,6.162,1.467,11.129,1.348c4.967-0.119,5.499,2.155,7.657,5.258
			c2.158,3.102,16.589,19.603,16.589,19.603l12.419-4.182c0,0-9.354,14.959-13.652,15.857c-4.298,0.898-14.843-9.681-14.843-9.681
			v25.057c-5.532,7.555-30.948,14.612-40.139,9.418c0,0-1.868-35.843,8.823-55.773L112.379,275.319z"/>
		<path style="fill:#3E3578;" d="M96.869,239.724c6.966-3.046,7.888-12.664,13.158-13.455c5.27-0.791,10.703,11.934,8.382,20.065
			c-2.321,8.131-7.855,9.241-7.855,9.241l1.206,3.759c0,0-3.323-0.916-3.845,1.851c-0.522,2.767,4.089,5.007,5.67,3.162
			c0,0,3.756,4.534,2.537,10.041c-1.219,5.507-12.819,14.267-17.56,9.426c-4.741-4.841,3.428-10.243,0.793-16.304
			c-2.635-6.061-10.57-6.396-11.939-13.739C86.047,246.428,90.849,242.357,96.869,239.724z"/>
		<polygon style="fill:#E0A951;" points="131.677,303.522 126.146,298.229 131.457,312.499 		"/>
		<path style="fill:#EFBF5B;" d="M161.264,407.905l2.279,4.073l7.404,1.363c2.24,0.412,4.076,2.017,4.783,4.183l0,0
			c0.108,0.332-0.114,0.68-0.461,0.721l-20.85,2.471l-3.955-10.47L161.264,407.905z"/>
		<polygon style="fill:#9E92E6;" points="150.465,410.245 148.576,405.562 159.745,402.993 161.264,407.905 		"/>
		<path style="fill:#EFBF5B;" d="M106.188,410.158l-0.985,2.662l5.432,1.6c1.085,0.32,1.893,1.232,2.078,2.348l0.14,0.845
			c0.098,0.586-0.355,1.12-0.949,1.12H93.051l3.017-8.576H106.188z"/>
		<polygon style="fill:#9E92E6;" points="96.067,410.158 97.243,406.711 107.593,406.711 106.188,410.158 		"/>
	</g>
	<path style="fill:#3E3578;" d="M146.962,87.369c0,0,4.928-4.069,4.083-9.357c-0.844-5.288-10.864-11.278-16.08-4.994
		c-5.217,6.283-4.6,8.82-10.235,9.897c-5.635,1.077-13.12,7.656-9.464,16.037c3.656,8.382,10.886,12.251,16.835,8.538
		C138.049,103.777,146.962,87.369,146.962,87.369z"/>
	<path style="fill:#F9CDD9;" d="M146.962,87.369c0,0,8.269,18.836-1.225,22.818c-9.494,3.982-15.993,0.015-17.991-3.908
		c0,0-3-0.472-3.303-3.392c-0.304-2.919,2.392-1.941,2.392-1.941s1.371-4.412,0.215-6.835
		C127.049,94.111,140.726,94.35,146.962,87.369z"/>
	<path style="fill:#F9CDD9;" d="M133.373,106.215l-3.856,2.399l-0.999,3.641c0,0,3.086,3.565,7.804,2.429l0.124-2.944
		L133.373,106.215z"/>
	<path style="fill:#EFBF5B;" d="M128.518,112.254c0,0-9.187,7.067-12.451,14.606c-3.264,7.54-3.809,27.738-0.394,31.301
		c3.415,3.562,25.344,4.668,38.59,0.899l-0.431-8.184c0,0-12.911,1.615-17.386,1.4l-0.124-37.593
		C136.322,114.683,129.695,113.369,128.518,112.254z"/>
	<path style="fill:#E0A951;" d="M127.152,133.807c0,0-1.467,2.988-1.739,7.743c-0.272,4.754,0.354,10.188,1.739,10.188
		c1.385,0,9.294,0.539,9.294,0.539S126.446,150.786,127.152,133.807z"/>
	<path style="fill:#F9CDD9;" d="M153.831,150.876l3.929-3.396l0.41,2.667c0,0,9.238-3.796,9.543-0.308
		c0.305,3.488-13.452,9.221-13.452,9.221L153.831,150.876z"/>
</g>
<g id="DESIGNED_BY_FREEPIK">
	<g>
		<g id="XMLID_29_">
			<g id="XMLID_48_">
				<path id="XMLID_56_" style="fill:#9EB7C7;" d="M260.104,465.465c-0.432,0.443-0.803,0.931-1.108,1.453l-0.465-0.241
					c-0.067-0.298-0.349-0.503-0.659-0.466c-0.331,0.039-0.568,0.339-0.529,0.67s0.339,0.568,0.67,0.529
					c0.065-0.008,0.127-0.026,0.184-0.052l0.451,0.234c-0.251,0.554-0.433,1.139-0.539,1.744l0.746,0.132
					c0.23-1.306,0.85-2.507,1.792-3.473L260.104,465.465z"/>
				<path id="XMLID_55_" style="fill:#9EB7C7;" d="M265.592,463.163c-0.171,0-0.341,0.006-0.51,0.017l-0.074-0.626
					c0.188-0.149,0.296-0.389,0.266-0.645c-0.046-0.393-0.402-0.674-0.795-0.628s-0.674,0.402-0.628,0.795
					c0.03,0.254,0.189,0.461,0.405,0.564l0.073,0.624c-0.714,0.116-1.403,0.332-2.06,0.646l0.327,0.684
					c0.934-0.447,1.942-0.673,2.995-0.673c0.496,0,0.993,0.053,1.475,0.158l0.161-0.741
					C266.693,463.222,266.142,463.163,265.592,463.163z"/>
				<path id="XMLID_54_" style="fill:#9EB7C7;" d="M272.194,465.711c0.331-0.04,0.566-0.341,0.525-0.672
					c-0.04-0.331-0.341-0.566-0.672-0.526c-0.309,0.038-0.535,0.304-0.53,0.609l-0.416,0.363c-0.418-0.43-0.89-0.813-1.408-1.139
					l-0.404,0.641c1.134,0.715,2.021,1.726,2.563,2.925l0.691-0.313c-0.251-0.554-0.568-1.072-0.942-1.545l0.402-0.351
					C272.065,465.716,272.129,465.719,272.194,465.711z"/>
				<path id="XMLID_53_" style="fill:#9EB7C7;" d="M265.044,473.372c-0.386,0.023-0.775,0.035-1.157,0.035
					c-0.88,0-1.733-0.061-2.478-0.179c-0.39-0.062-0.846-0.155-1.27-0.292c1.046,1.861,3.069,3.125,5.388,3.125
					c2.855,0,5.262-1.916,5.95-4.504c-0.682,0.449-1.505,0.825-2.459,1.123C267.839,473.047,266.464,473.286,265.044,473.372z"/>
				<path id="XMLID_49_" style="fill:#9EB7C7;" d="M265.592,464.68c-3.352,0-6.08,2.666-6.08,5.943c0,0.426,0.046,0.849,0.137,1.261
					c0.674,0.483,2.706,0.89,5.348,0.731c2.879-0.173,5.297-0.957,6.672-2.159c-0.005-0.195-0.021-0.39-0.045-0.582
					C271.244,466.913,268.65,464.68,265.592,464.68z M263.432,471.194c-1.02,0-1.85-0.83-1.85-1.85c0-1.02,0.83-1.85,1.85-1.85
					c1.02,0,1.85,0.83,1.85,1.85C265.282,470.365,264.452,471.194,263.432,471.194z M268.17,470.286c-0.75,0-1.36-0.61-1.36-1.36
					s0.61-1.361,1.36-1.361c0.75,0,1.361,0.61,1.361,1.361S268.92,470.286,268.17,470.286z"/>
			</g>
			<path id="XMLID_46_" style="fill:#9EB7C7;" d="M281.595,466.547c-0.295-0.116-0.806-0.309-1.382-0.237
				c-0.551,0.069-0.844,0.341-0.844,1.007v0.866h2.228v1.717h-2.228v5.455h-1.932v-5.455h-1.34v-1.717h1.34v-0.888
				c0-1.68,0.896-2.783,2.568-2.783c0.642,0,1.157,0.122,1.59,0.308L281.595,466.547z"/>
			<path id="XMLID_44_" style="fill:#9EB7C7;" d="M286.298,469.879c-0.177-0.03-0.358-0.046-0.526-0.046
				c-0.896,0-1.51,0.548-1.51,1.614v3.908h-1.932v-7.172h1.873v0.785c0.451-0.673,1.14-0.977,2.021-0.977
				c0.414,0,0.848,0.128,1.094,0.337L286.298,469.879z"/>
			<path id="XMLID_41_" style="fill:#9EB7C7;" d="M293.965,471.757c0,0.222-0.015,0.489-0.037,0.651h-5.085
				c0.207,1.036,0.933,1.488,1.843,1.488c0.622,0,1.295-0.252,1.813-0.688l1.132,1.243c-0.814,0.748-1.85,1.088-3.057,1.088
				c-2.198,0-3.723-1.495-3.723-3.753c0-2.258,1.48-3.797,3.627-3.797C292.544,467.99,293.958,469.522,293.965,471.757z
				 M288.851,471.091h3.175c-0.177-0.918-0.733-1.436-1.562-1.436C289.554,469.655,289.021,470.203,288.851,471.091z"/>
			<path id="XMLID_38_" style="fill:#9EB7C7;" d="M301.618,471.757c0,0.222-0.015,0.489-0.037,0.651h-5.085
				c0.207,1.036,0.932,1.488,1.843,1.488c0.622,0,1.295-0.252,1.813-0.688l1.132,1.243c-0.814,0.748-1.85,1.088-3.057,1.088
				c-2.198,0-3.723-1.495-3.723-3.753c0-2.258,1.48-3.797,3.627-3.797C300.197,467.99,301.611,469.522,301.618,471.757z
				 M296.504,471.091h3.175c-0.178-0.918-0.733-1.436-1.562-1.436C297.207,469.655,296.674,470.203,296.504,471.091z"/>
			<path id="XMLID_35_" style="fill:#9EB7C7;" d="M309.964,471.764c0,2.154-1.495,3.775-3.471,3.775
				c-0.962,0-1.643-0.378-2.109-0.933v3.708h-1.924v-10.133h1.887v0.792c0.466-0.585,1.155-0.984,2.139-0.984
				C308.469,467.99,309.964,469.61,309.964,471.764z M304.287,471.764c0,1.132,0.747,1.976,1.843,1.976
				c1.14,0,1.85-0.881,1.85-1.976c0-1.095-0.71-1.976-1.85-1.976C305.035,469.788,304.287,470.632,304.287,471.764z"/>
			<path id="XMLID_32_" style="fill:#9EB7C7;" d="M313.068,465.836c0,0.696-0.54,1.229-1.236,1.229
				c-0.696,0-1.229-0.533-1.229-1.229c0-0.696,0.533-1.243,1.229-1.243C312.527,464.592,313.068,465.14,313.068,465.836z
				 M312.809,475.354h-1.932v-7.172h1.932V475.354z"/>
			<path id="XMLID_30_" style="fill:#9EB7C7;" d="M316.032,470.736l2.702-2.554h2.368l-3.479,3.375l3.501,3.797h-2.376l-2.716-2.901
				v2.901H314.1v-10.658h1.932V470.736z"/>
		</g>
		<g>
			<path style="fill:#9EB7C7;" d="M184.412,475.289v-1.055c-0.527,0.718-1.391,1.23-2.387,1.23c-1.846,0-3.149-1.406-3.149-3.706
				c0-2.256,1.289-3.721,3.149-3.721c0.952,0,1.816,0.469,2.387,1.245v-3.765h1.099v9.77H184.412z M184.412,473.37v-3.208
				c-0.395-0.615-1.245-1.143-2.124-1.143c-1.421,0-2.27,1.172-2.27,2.739c0,1.567,0.85,2.724,2.27,2.724
				C183.168,474.483,184.017,473.986,184.412,473.37z"/>
			<path style="fill:#9EB7C7;" d="M186.932,471.744c0-2.051,1.465-3.706,3.486-3.706c2.139,0,3.398,1.67,3.398,3.794v0.279h-5.727
				c0.088,1.333,1.025,2.446,2.549,2.446c0.805,0,1.626-0.322,2.182-0.894l0.527,0.718c-0.703,0.703-1.655,1.084-2.812,1.084
				C188.44,475.465,186.932,473.956,186.932,471.744z M190.403,468.947c-1.509,0-2.256,1.274-2.314,2.358h4.643
				C192.718,470.25,192.015,468.947,190.403,468.947z"/>
			<path style="fill:#9EB7C7;" d="M194.607,474.351l0.571-0.791c0.469,0.542,1.362,1.011,2.329,1.011c1.084,0,1.67-0.513,1.67-1.216
				c0-1.714-4.38-0.659-4.38-3.281c0-1.098,0.952-2.036,2.636-2.036c1.201,0,2.051,0.454,2.622,1.026l-0.513,0.762
				c-0.424-0.513-1.201-0.894-2.109-0.894c-0.967,0-1.567,0.483-1.567,1.113c0,1.552,4.38,0.527,4.38,3.281
				c0,1.187-0.952,2.138-2.783,2.138C196.306,475.465,195.325,475.113,194.607,474.351z"/>
			<path style="fill:#9EB7C7;" d="M201.477,466.471c0-0.41,0.337-0.747,0.732-0.747c0.41,0,0.747,0.337,0.747,0.747
				c0,0.41-0.337,0.732-0.747,0.732C201.814,467.203,201.477,466.881,201.477,466.471z M201.667,475.289v-7.075h1.099v7.075H201.667
				z"/>
			<path style="fill:#9EB7C7;" d="M204.582,477.105l0.556-0.82c0.586,0.703,1.289,0.967,2.3,0.967c1.172,0,2.27-0.571,2.27-2.124
				v-1.011c-0.513,0.718-1.377,1.26-2.373,1.26c-1.845,0-3.149-1.377-3.149-3.662c0-2.27,1.289-3.677,3.149-3.677
				c0.952,0,1.802,0.469,2.373,1.245v-1.069h1.098v6.87c0,2.344-1.641,3.076-3.369,3.076
				C206.237,478.16,205.417,477.926,204.582,477.105z M209.709,473.253v-3.091c-0.381-0.615-1.23-1.143-2.109-1.143
				c-1.421,0-2.27,1.128-2.27,2.695c0,1.553,0.849,2.695,2.27,2.695C208.478,474.41,209.328,473.868,209.709,473.253z"/>
			<path style="fill:#9EB7C7;" d="M217.413,475.289v-4.629c0-1.245-0.63-1.641-1.582-1.641c-0.865,0-1.685,0.527-2.095,1.099v5.17
				h-1.099v-7.075h1.099v1.025c0.498-0.586,1.464-1.201,2.519-1.201c1.48,0,2.256,0.747,2.256,2.285v4.966H217.413z"/>
			<path style="fill:#9EB7C7;" d="M219.932,471.744c0-2.051,1.465-3.706,3.486-3.706c2.139,0,3.398,1.67,3.398,3.794v0.279h-5.727
				c0.088,1.333,1.025,2.446,2.549,2.446c0.806,0,1.626-0.322,2.183-0.894l0.527,0.718c-0.703,0.703-1.655,1.084-2.812,1.084
				C221.441,475.465,219.932,473.956,219.932,471.744z M223.404,468.947c-1.509,0-2.256,1.274-2.314,2.358h4.643
				C225.718,470.25,225.015,468.947,223.404,468.947z"/>
			<path style="fill:#9EB7C7;" d="M233.35,475.289v-1.055c-0.527,0.718-1.392,1.23-2.388,1.23c-1.846,0-3.149-1.406-3.149-3.706
				c0-2.256,1.289-3.721,3.149-3.721c0.952,0,1.817,0.469,2.388,1.245v-3.765h1.098v9.77H233.35z M233.35,473.37v-3.208
				c-0.396-0.615-1.245-1.143-2.124-1.143c-1.421,0-2.27,1.172-2.27,2.739c0,1.567,0.849,2.724,2.27,2.724
				C232.105,474.483,232.954,473.986,233.35,473.37z"/>
			<path style="fill:#9EB7C7;" d="M239.692,475.289v-9.77h1.098v3.765c0.572-0.776,1.421-1.245,2.388-1.245
				c1.845,0,3.149,1.465,3.149,3.721c0,2.299-1.304,3.706-3.149,3.706c-0.996,0-1.86-0.513-2.388-1.23v1.055H239.692z
				 M242.9,474.483c1.436,0,2.285-1.157,2.285-2.724c0-1.568-0.85-2.739-2.285-2.739c-0.864,0-1.728,0.527-2.109,1.143v3.208
				C241.171,473.986,242.036,474.483,242.9,474.483z"/>
			<path style="fill:#9EB7C7;" d="M247.528,477.061c0.161,0.073,0.425,0.117,0.601,0.117c0.483,0,0.805-0.161,1.055-0.747
				l0.469-1.069l-2.959-7.148h1.187l2.358,5.8l2.344-5.8h1.201l-3.545,8.51c-0.425,1.025-1.143,1.421-2.08,1.435
				c-0.234,0-0.601-0.044-0.805-0.103L247.528,477.061z"/>
		</g>
	</g>
</g>
</svg>
